<svg class="main-svg" xmlns="http://www.w3.org/2000/svg" xmlns:xlink="http://www.w3.org/1999/xlink" width="800" height="800" style="" viewBox="0 0 800 800"><rect x="0" y="0" width="800" height="800" style="fill: rgb(255, 255, 255); fill-opacity: 1;"/><defs id="defs-c63c15"><g class="clips"><clipPath id="clipc63c15xyplot" class="plotclip"><rect width="680" height="680"/></clipPath><clipPath class="axesclip" id="clipc63c15x"><rect x="90" y="0" width="680" height="800"/></clipPath><clipPath class="axesclip" id="clipc63c15y"><rect x="0" y="50" width="800" height="680"/></clipPath><clipPath class="axesclip" id="clipc63c15xy"><rect x="90" y="50" width="680" height="680"/></clipPath></g><g class="gradients"/><g class="patterns"/></defs><g class="bglayer"/><g class="layer-below"><g class="imagelayer"/><g class="shapelayer"/></g><g class="cartesianlayer"><g class="subplot xy"><g class="layer-subplot"><g class="shapelayer"/><g class="imagelayer"/></g><g class="minor-gridlayer"><g class="x"><path class="xgrid crisp" transform="translate(112.67,0)" d="M0,50v680" style="stroke: rgb(245, 245, 245); stroke-opacity: 1; stroke-width: 0.5px;"/><path class="xgrid crisp" transform="translate(135.32999999999998,0)" d="M0,50v680" style="stroke: rgb(245, 245, 245); stroke-opacity: 1; stroke-width: 0.5px;"/><path class="xgrid crisp" transform="translate(158,0)" d="M0,50v680" style="stroke: rgb(245, 245, 245); stroke-opacity: 1; stroke-width: 0.5px;"/><path class="xgrid crisp" transform="translate(180.67000000000002,0)" d="M0,50v680" style="stroke: rgb(245, 245, 245); stroke-opacity: 1; stroke-width: 0.5px;"/><path class="xgrid crisp" transform="translate(226,0)" d="M0,50v680" style="stroke: rgb(245, 245, 245); stroke-opacity: 1; stroke-width: 0.5px;"/><path class="xgrid crisp" transform="translate(248.67,0)" d="M0,50v680" style="stroke: rgb(245, 245, 245); stroke-opacity: 1; stroke-width: 0.5px;"/><path class="xgrid crisp" transform="translate(271.33000000000004,0)" d="M0,50v680" style="stroke: rgb(245, 245, 245); stroke-opacity: 1; stroke-width: 0.5px;"/><path class="xgrid crisp" transform="translate(294,0)" d="M0,50v680" style="stroke: rgb(245, 245, 245); stroke-opacity: 1; stroke-width: 0.5px;"/><path class="xgrid crisp" transform="translate(339.33000000000004,0)" d="M0,50v680" style="stroke: rgb(245, 245, 245); stroke-opacity: 1; stroke-width: 0.5px;"/><path class="xgrid crisp" transform="translate(362,0)" d="M0,50v680" style="stroke: rgb(245, 245, 245); stroke-opacity: 1; stroke-width: 0.5px;"/><path class="xgrid crisp" transform="translate(384.67,0)" d="M0,50v680" style="stroke: rgb(245, 245, 245); stroke-opacity: 1; stroke-width: 0.5px;"/><path class="xgrid crisp" transform="translate(407.33,0)" d="M0,50v680" style="stroke: rgb(245, 245, 245); stroke-opacity: 1; stroke-width: 0.5px;"/><path class="xgrid crisp" transform="translate(452.67,0)" d="M0,50v680" style="stroke: rgb(245, 245, 245); stroke-opacity: 1; stroke-width: 0.5px;"/><path class="xgrid crisp" transform="translate(475.33,0)" d="M0,50v680" style="stroke: rgb(245, 245, 245); stroke-opacity: 1; stroke-width: 0.5px;"/><path class="xgrid crisp" transform="translate(498,0)" d="M0,50v680" style="stroke: rgb(245, 245, 245); stroke-opacity: 1; stroke-width: 0.5px;"/><path class="xgrid crisp" transform="translate(520.6700000000001,0)" d="M0,50v680" style="stroke: rgb(245, 245, 245); stroke-opacity: 1; stroke-width: 0.5px;"/><path class="xgrid crisp" transform="translate(566,0)" d="M0,50v680" style="stroke: rgb(245, 245, 245); stroke-opacity: 1; stroke-width: 0.5px;"/><path class="xgrid crisp" transform="translate(588.6700000000001,0)" d="M0,50v680" style="stroke: rgb(245, 245, 245); stroke-opacity: 1; stroke-width: 0.5px;"/><path class="xgrid crisp" transform="translate(611.33,0)" d="M0,50v680" style="stroke: rgb(245, 245, 245); stroke-opacity: 1; stroke-width: 0.5px;"/><path class="xgrid crisp" transform="translate(634,0)" d="M0,50v680" style="stroke: rgb(245, 245, 245); stroke-opacity: 1; stroke-width: 0.5px;"/><path class="xgrid crisp" transform="translate(679.33,0)" d="M0,50v680" style="stroke: rgb(245, 245, 245); stroke-opacity: 1; stroke-width: 0.5px;"/><path class="xgrid crisp" transform="translate(702,0)" d="M0,50v680" style="stroke: rgb(245, 245, 245); stroke-opacity: 1; stroke-width: 0.5px;"/><path class="xgrid crisp" transform="translate(724.67,0)" d="M0,50v680" style="stroke: rgb(245, 245, 245); stroke-opacity: 1; stroke-width: 0.5px;"/><path class="xgrid crisp" transform="translate(747.33,0)" d="M0,50v680" style="stroke: rgb(245, 245, 245); stroke-opacity: 1; stroke-width: 0.5px;"/></g><g class="y"><path class="ygrid crisp" transform="translate(0,707.33)" d="M90,0h680" style="stroke: rgb(245, 245, 245); stroke-opacity: 1; stroke-width: 0.5px;"/><path class="ygrid crisp" transform="translate(0,684.67)" d="M90,0h680" style="stroke: rgb(245, 245, 245); stroke-opacity: 1; stroke-width: 0.5px;"/><path class="ygrid crisp" transform="translate(0,662)" d="M90,0h680" style="stroke: rgb(245, 245, 245); stroke-opacity: 1; stroke-width: 0.5px;"/><path class="ygrid crisp" transform="translate(0,639.33)" d="M90,0h680" style="stroke: rgb(245, 245, 245); stroke-opacity: 1; stroke-width: 0.5px;"/><path class="ygrid crisp" transform="translate(0,594)" d="M90,0h680" style="stroke: rgb(245, 245, 245); stroke-opacity: 1; stroke-width: 0.5px;"/><path class="ygrid crisp" transform="translate(0,571.33)" d="M90,0h680" style="stroke: rgb(245, 245, 245); stroke-opacity: 1; stroke-width: 0.5px;"/><path class="ygrid crisp" transform="translate(0,548.6700000000001)" d="M90,0h680" style="stroke: rgb(245, 245, 245); stroke-opacity: 1; stroke-width: 0.5px;"/><path class="ygrid crisp" transform="translate(0,526)" d="M90,0h680" style="stroke: rgb(245, 245, 245); stroke-opacity: 1; stroke-width: 0.5px;"/><path class="ygrid crisp" transform="translate(0,480.67)" d="M90,0h680" style="stroke: rgb(245, 245, 245); stroke-opacity: 1; stroke-width: 0.5px;"/><path class="ygrid crisp" transform="translate(0,458)" d="M90,0h680" style="stroke: rgb(245, 245, 245); stroke-opacity: 1; stroke-width: 0.5px;"/><path class="ygrid crisp" transform="translate(0,435.33)" d="M90,0h680" style="stroke: rgb(245, 245, 245); stroke-opacity: 1; stroke-width: 0.5px;"/><path class="ygrid crisp" transform="translate(0,412.67)" d="M90,0h680" style="stroke: rgb(245, 245, 245); stroke-opacity: 1; stroke-width: 0.5px;"/><path class="ygrid crisp" transform="translate(0,367.33)" d="M90,0h680" style="stroke: rgb(245, 245, 245); stroke-opacity: 1; stroke-width: 0.5px;"/><path class="ygrid crisp" transform="translate(0,344.67)" d="M90,0h680" style="stroke: rgb(245, 245, 245); stroke-opacity: 1; stroke-width: 0.5px;"/><path class="ygrid crisp" transform="translate(0,322)" d="M90,0h680" style="stroke: rgb(245, 245, 245); stroke-opacity: 1; stroke-width: 0.5px;"/><path class="ygrid crisp" transform="translate(0,299.33000000000004)" d="M90,0h680" style="stroke: rgb(245, 245, 245); stroke-opacity: 1; stroke-width: 0.5px;"/><path class="ygrid crisp" transform="translate(0,254)" d="M90,0h680" style="stroke: rgb(245, 245, 245); stroke-opacity: 1; stroke-width: 0.5px;"/><path class="ygrid crisp" transform="translate(0,231.33)" d="M90,0h680" style="stroke: rgb(245, 245, 245); stroke-opacity: 1; stroke-width: 0.5px;"/><path class="ygrid crisp" transform="translate(0,208.67)" d="M90,0h680" style="stroke: rgb(245, 245, 245); stroke-opacity: 1; stroke-width: 0.5px;"/><path class="ygrid crisp" transform="translate(0,186)" d="M90,0h680" style="stroke: rgb(245, 245, 245); stroke-opacity: 1; stroke-width: 0.5px;"/><path class="ygrid crisp" transform="translate(0,140.67000000000002)" d="M90,0h680" style="stroke: rgb(245, 245, 245); stroke-opacity: 1; stroke-width: 0.5px;"/><path class="ygrid crisp" transform="translate(0,118)" d="M90,0h680" style="stroke: rgb(245, 245, 245); stroke-opacity: 1; stroke-width: 0.5px;"/><path class="ygrid crisp" transform="translate(0,95.33)" d="M90,0h680" style="stroke: rgb(245, 245, 245); stroke-opacity: 1; stroke-width: 0.5px;"/><path class="ygrid crisp" transform="translate(0,72.67)" d="M90,0h680" style="stroke: rgb(245, 245, 245); stroke-opacity: 1; stroke-width: 0.5px;"/></g></g><g class="gridlayer"><g class="x"><path class="xgrid crisp" transform="translate(203.32999999999998,0)" d="M0,50v680" style="stroke: rgb(211, 211, 211); stroke-opacity: 1; stroke-width: 1px;"/><path class="xgrid crisp" transform="translate(316.66999999999996,0)" d="M0,50v680" style="stroke: rgb(211, 211, 211); stroke-opacity: 1; stroke-width: 1px;"/><path class="xgrid crisp" transform="translate(430,0)" d="M0,50v680" style="stroke: rgb(211, 211, 211); stroke-opacity: 1; stroke-width: 1px;"/><path class="xgrid crisp" transform="translate(543.3299999999999,0)" d="M0,50v680" style="stroke: rgb(211, 211, 211); stroke-opacity: 1; stroke-width: 1px;"/><path class="xgrid crisp" transform="translate(656.67,0)" d="M0,50v680" style="stroke: rgb(211, 211, 211); stroke-opacity: 1; stroke-width: 1px;"/></g><g class="y"><path class="ygrid crisp" transform="translate(0,616.67)" d="M90,0h680" style="stroke: rgb(211, 211, 211); stroke-opacity: 1; stroke-width: 1px;"/><path class="ygrid crisp" transform="translate(0,503.33)" d="M90,0h680" style="stroke: rgb(211, 211, 211); stroke-opacity: 1; stroke-width: 1px;"/><path class="ygrid crisp" transform="translate(0,390)" d="M90,0h680" style="stroke: rgb(211, 211, 211); stroke-opacity: 1; stroke-width: 1px;"/><path class="ygrid crisp" transform="translate(0,276.66999999999996)" d="M90,0h680" style="stroke: rgb(211, 211, 211); stroke-opacity: 1; stroke-width: 1px;"/><path class="ygrid crisp" transform="translate(0,163.32999999999998)" d="M90,0h680" style="stroke: rgb(211, 211, 211); stroke-opacity: 1; stroke-width: 1px;"/></g></g><g class="zerolinelayer"/><g class="layer-between"><g class="shapelayer"/><g class="imagelayer"/></g><path class="xlines-below"/><path class="ylines-below"/><g class="overlines-below"/><g class="xaxislayer-below"/><g class="yaxislayer-below"/><g class="overaxes-below"/><g class="overplot"><g class="xy" transform="translate(90,50)" clip-path="url(#clipc63c15xyplot)"><g class="scatterlayer mlayer"><g class="trace scatter trace643260" style="stroke-miterlimit: 2; opacity: 1;"><g class="fills"/><g class="errorbars"/><g class="lines"/><g class="points"><path class="point" transform="translate(31.73,51.35)" d="M4,0A4,4 0 1,1 0,-4A4,4 0 0,1 4,0Z" style="opacity: 1; stroke-width: 0px; fill: rgb(76, 114, 176); fill-opacity: 1;"/><path class="point" transform="translate(108.12,281.56)" d="M4,0A4,4 0 1,1 0,-4A4,4 0 0,1 4,0Z" style="opacity: 1; stroke-width: 0px; fill: rgb(76, 114, 176); fill-opacity: 1;"/><path class="point" transform="translate(136,292.63)" d="M4,0A4,4 0 1,1 0,-4A4,4 0 0,1 4,0Z" style="opacity: 1; stroke-width: 0px; fill: rgb(76, 114, 176); fill-opacity: 1;"/><path class="point" transform="translate(200.15,616.36)" d="M4,0A4,4 0 1,1 0,-4A4,4 0 0,1 4,0Z" style="opacity: 1; stroke-width: 0px; fill: rgb(76, 114, 176); fill-opacity: 1;"/><path class="point" transform="translate(289.23,656.76)" d="M4,0A4,4 0 1,1 0,-4A4,4 0 0,1 4,0Z" style="opacity: 1; stroke-width: 0px; fill: rgb(76, 114, 176); fill-opacity: 1;"/><path class="point" transform="translate(374.23,661.74)" d="M4,0A4,4 0 1,1 0,-4A4,4 0 0,1 4,0Z" style="opacity: 1; stroke-width: 0px; fill: rgb(76, 114, 176); fill-opacity: 1;"/><path class="point" transform="translate(550.12,668.17)" d="M4,0A4,4 0 1,1 0,-4A4,4 0 0,1 4,0Z" style="opacity: 1; stroke-width: 0px; fill: rgb(76, 114, 176); fill-opacity: 1;"/></g><g class="text"/></g><g class="trace scatter trace71ad3c" style="stroke-miterlimit: 2; opacity: 1;"><g class="fills"/><g class="errorbars"/><g class="lines"/><g class="points"/><g class="text"><g class="textpoint" transform="translate(0,-3.5)"><text x="31.73" y="45.69" text-anchor="start" style="font-family: 'Open Sans', verdana, arial, sans-serif; font-size: 14px; fill: rgb(76, 114, 176); fill-opacity: 1; white-space: pre;">oQ2</text></g><g class="textpoint" transform="translate(0,-3.5)"><text x="108.12" y="275.9" text-anchor="start" style="font-family: 'Open Sans', verdana, arial, sans-serif; font-size: 14px; fill: rgb(76, 114, 176); fill-opacity: 1; white-space: pre;">oQ3</text></g><g class="textpoint" transform="translate(0,-3.5)"><text x="136" y="286.96" text-anchor="start" style="font-family: 'Open Sans', verdana, arial, sans-serif; font-size: 14px; fill: rgb(76, 114, 176); fill-opacity: 1; white-space: pre;">oQ3.5</text></g><g class="textpoint" transform="translate(0,-3.5)"><text x="200.15" y="610.69" text-anchor="start" style="font-family: 'Open Sans', verdana, arial, sans-serif; font-size: 14px; fill: rgb(76, 114, 176); fill-opacity: 1; white-space: pre;">oQ4</text></g><g class="textpoint" transform="translate(0,-3.5)"><text x="289.23" y="651.09" text-anchor="start" style="font-family: 'Open Sans', verdana, arial, sans-serif; font-size: 14px; fill: rgb(76, 114, 176); fill-opacity: 1; white-space: pre;">oQ5</text></g><g class="textpoint" transform="translate(0,-3.5)"><text x="374.23" y="656.07" text-anchor="start" style="font-family: 'Open Sans', verdana, arial, sans-serif; font-size: 14px; fill: rgb(76, 114, 176); fill-opacity: 1; white-space: pre;">oQ6</text></g><g class="textpoint" transform="translate(0,-3.5)"><text x="550.12" y="662.5" text-anchor="start" style="font-family: 'Open Sans', verdana, arial, sans-serif; font-size: 14px; fill: rgb(76, 114, 176); fill-opacity: 1; white-space: pre;">oQ8</text></g></g></g><g class="trace scatter trace35cf9b" style="stroke-miterlimit: 2; opacity: 1;"><g class="fills"/><g class="errorbars"/><g class="lines"/><g class="points"><path class="point" transform="translate(2.27,-6332.5)" d="M4,0A4,4 0 1,1 0,-4A4,4 0 0,1 4,0Z" style="opacity: 1; stroke-width: 0px; fill: rgb(221, 132, 82); fill-opacity: 1;"/><path class="point" transform="translate(93.84,157.6)" d="M4,0A4,4 0 1,1 0,-4A4,4 0 0,1 4,0Z" style="opacity: 1; stroke-width: 0px; fill: rgb(221, 132, 82); fill-opacity: 1;"/><path class="point" transform="translate(185.19,538.33)" d="M4,0A4,4 0 1,1 0,-4A4,4 0 0,1 4,0Z" style="opacity: 1; stroke-width: 0px; fill: rgb(221, 132, 82); fill-opacity: 1;"/><path class="point" transform="translate(276.53,635.73)" d="M4,0A4,4 0 1,1 0,-4A4,4 0 0,1 4,0Z" style="opacity: 1; stroke-width: 0px; fill: rgb(221, 132, 82); fill-opacity: 1;"/><path class="point" transform="translate(367.88,659.39)" d="M4,0A4,4 0 1,1 0,-4A4,4 0 0,1 4,0Z" style="opacity: 1; stroke-width: 0px; fill: rgb(221, 132, 82); fill-opacity: 1;"/><path class="point" transform="translate(550.8,667.76)" d="M4,0A4,4 0 1,1 0,-4A4,4 0 0,1 4,0Z" style="opacity: 1; stroke-width: 0px; fill: rgb(221, 132, 82); fill-opacity: 1;"/></g><g class="text"/></g><g class="trace scatter trace8b7000" style="stroke-miterlimit: 2; opacity: 1;"><g class="fills"/><g class="errorbars"/><g class="lines"/><g class="points"/><g class="text"><g class="textpoint" transform="translate(0,-3.5)"><text x="2.27" y="-6338.17" text-anchor="start" style="font-family: 'Open Sans', verdana, arial, sans-serif; font-size: 14px; fill: rgb(221, 132, 82); fill-opacity: 1; white-space: pre;">Q2</text></g><g class="textpoint" transform="translate(0,-3.5)"><text x="93.84" y="151.94" text-anchor="start" style="font-family: 'Open Sans', verdana, arial, sans-serif; font-size: 14px; fill: rgb(221, 132, 82); fill-opacity: 1; white-space: pre;">Q3</text></g><g class="textpoint" transform="translate(0,-3.5)"><text x="185.19" y="532.67" text-anchor="start" style="font-family: 'Open Sans', verdana, arial, sans-serif; font-size: 14px; fill: rgb(221, 132, 82); fill-opacity: 1; white-space: pre;">Q4</text></g><g class="textpoint" transform="translate(0,-3.5)"><text x="276.53" y="630.06" text-anchor="start" style="font-family: 'Open Sans', verdana, arial, sans-serif; font-size: 14px; fill: rgb(221, 132, 82); fill-opacity: 1; white-space: pre;">Q5</text></g><g class="textpoint" transform="translate(0,-3.5)"><text x="367.88" y="653.72" text-anchor="end" style="font-family: 'Open Sans', verdana, arial, sans-serif; font-size: 14px; fill: rgb(221, 132, 82); fill-opacity: 1; white-space: pre;">Q6</text></g><g class="textpoint" transform="translate(0,-3.5)"><text x="547.4" y="662.09" text-anchor="end" style="font-family: 'Open Sans', verdana, arial, sans-serif; font-size: 14px; fill: rgb(221, 132, 82); fill-opacity: 1; white-space: pre;">Q8</text></g></g></g><g class="trace scatter trace40784e" style="stroke-miterlimit: 2; opacity: 1;"><g class="fills"/><g class="errorbars"/><g class="lines"/><g class="points"><path class="point" transform="translate(162.29,427.66)" d="M4,0A4,4 0 1,1 0,-4A4,4 0 0,1 4,0Z" style="opacity: 1; stroke-width: 0px; fill: rgb(140, 107, 177); fill-opacity: 1;"/><path class="point" transform="translate(527.91,584.82)" d="M4,0A4,4 0 1,1 0,-4A4,4 0 0,1 4,0Z" style="opacity: 1; stroke-width: 0px; fill: rgb(140, 107, 177); fill-opacity: 1;"/></g><g class="text"/></g><g class="trace scatter trace26ec5d" style="stroke-miterlimit: 2; opacity: 1;"><g class="fills"/><g class="errorbars"/><g class="lines"/><g class="points"/><g class="text"><g class="textpoint" transform="translate(0,-3.5)"><text x="162.29" y="421.99" text-anchor="start" style="font-family: 'Open Sans', verdana, arial, sans-serif; font-size: 14px; fill: rgb(140, 107, 177); fill-opacity: 1; white-space: pre;">MXFP4</text></g><g class="textpoint" transform="translate(0,-3.5)"><text x="527.91" y="579.15" text-anchor="start" style="font-family: 'Open Sans', verdana, arial, sans-serif; font-size: 14px; fill: rgb(140, 107, 177); fill-opacity: 1; white-space: pre;">MXFP8</text></g></g></g><g class="trace scatter tracebbe738" style="stroke-miterlimit: 2; opacity: 1;"><g class="fills"/><g class="errorbars"/><g class="lines"/><g class="points"><path class="point" transform="translate(121.27,569.88)" d="M4,0A4,4 0 1,1 0,-4A4,4 0 0,1 4,0Z" style="opacity: 1; stroke-width: 0px; fill: rgb(85, 168, 104); fill-opacity: 1;"/><path class="point" transform="translate(211.25,642.92)" d="M4,0A4,4 0 1,1 0,-4A4,4 0 0,1 4,0Z" style="opacity: 1; stroke-width: 0px; fill: rgb(85, 168, 104); fill-opacity: 1;"/></g><g class="text"/></g><g class="trace scatter trace71b18f" style="stroke-miterlimit: 2; opacity: 1;"><g class="fills"/><g class="errorbars"/><g class="lines"/><g class="points"/><g class="text"><g class="textpoint" transform="translate(0,-3.5)"><text x="121.27" y="564.21" text-anchor="start" style="font-family: 'Open Sans', verdana, arial, sans-serif; font-size: 14px; fill: rgb(85, 168, 104); fill-opacity: 1; white-space: pre;">UD3</text></g><g class="textpoint" transform="translate(0,-3.5)"><text x="211.25" y="637.26" text-anchor="start" style="font-family: 'Open Sans', verdana, arial, sans-serif; font-size: 14px; fill: rgb(85, 168, 104); fill-opacity: 1; white-space: pre;">UD4</text></g></g></g></g></g></g><g class="zerolinelayer-above"/><path class="xlines-above crisp" d="M89,730.5H771M89,49.5H771" style="fill: none; stroke-width: 1px; stroke: rgb(0, 0, 0); stroke-opacity: 1;"/><path class="ylines-above crisp" d="M89.5,50V730M770.5,50V730" style="fill: none; stroke-width: 1px; stroke: rgb(0, 0, 0); stroke-opacity: 1;"/><g class="overlines-above"/><g class="xaxislayer-above"><g class="xtick"><text text-anchor="middle" x="0" y="745.4" transform="translate(90,10)" style="font-family: 'Open Sans', verdana, arial, sans-serif; font-size: 12px; fill: rgb(0, 0, 0); fill-opacity: 1; white-space: pre;">10</text></g><g class="xtick"><text text-anchor="middle" x="0" y="745.4" style="font-family: 'Open Sans', verdana, arial, sans-serif; font-size: 12px; fill: rgb(0, 0, 0); fill-opacity: 1; white-space: pre;" transform="translate(203.32999999999998,10)">15</text></g><g class="xtick"><text text-anchor="middle" x="0" y="745.4" style="font-family: 'Open Sans', verdana, arial, sans-serif; font-size: 12px; fill: rgb(0, 0, 0); fill-opacity: 1; white-space: pre;" transform="translate(316.66999999999996,10)">20</text></g><g class="xtick"><text text-anchor="middle" x="0" y="745.4" style="font-family: 'Open Sans', verdana, arial, sans-serif; font-size: 12px; fill: rgb(0, 0, 0); fill-opacity: 1; white-space: pre;" transform="translate(430,10)">25</text></g><g class="xtick"><text text-anchor="middle" x="0" y="745.4" style="font-family: 'Open Sans', verdana, arial, sans-serif; font-size: 12px; fill: rgb(0, 0, 0); fill-opacity: 1; white-space: pre;" transform="translate(543.3299999999999,10)">30</text></g><g class="xtick"><text text-anchor="middle" x="0" y="745.4" style="font-family: 'Open Sans', verdana, arial, sans-serif; font-size: 12px; fill: rgb(0, 0, 0); fill-opacity: 1; white-space: pre;" transform="translate(656.67,10)">35</text></g><g class="xtick"><text text-anchor="middle" x="0" y="745.4" style="font-family: 'Open Sans', verdana, arial, sans-serif; font-size: 12px; fill: rgb(0, 0, 0); fill-opacity: 1; white-space: pre;" transform="translate(770,10)">40</text></g></g><g class="yaxislayer-above"><g class="ytick"><text text-anchor="end" x="86.6" y="4.199999999999999" transform="translate(-10,730)" style="font-family: 'Open Sans', verdana, arial, sans-serif; font-size: 12px; fill: rgb(0, 0, 0); fill-opacity: 1; white-space: pre;">0</text></g><g class="ytick"><text text-anchor="end" x="86.6" y="4.199999999999999" style="font-family: 'Open Sans', verdana, arial, sans-serif; font-size: 12px; fill: rgb(0, 0, 0); fill-opacity: 1; white-space: pre;" transform="translate(-10,616.67)">0.05</text></g><g class="ytick"><text text-anchor="end" x="86.6" y="4.199999999999999" style="font-family: 'Open Sans', verdana, arial, sans-serif; font-size: 12px; fill: rgb(0, 0, 0); fill-opacity: 1; white-space: pre;" transform="translate(-10,503.33)">0.1</text></g><g class="ytick"><text text-anchor="end" x="86.6" y="4.199999999999999" style="font-family: 'Open Sans', verdana, arial, sans-serif; font-size: 12px; fill: rgb(0, 0, 0); fill-opacity: 1; white-space: pre;" transform="translate(-10,390)">0.15</text></g><g class="ytick"><text text-anchor="end" x="86.6" y="4.199999999999999" style="font-family: 'Open Sans', verdana, arial, sans-serif; font-size: 12px; fill: rgb(0, 0, 0); fill-opacity: 1; white-space: pre;" transform="translate(-10,276.66999999999996)">0.2</text></g><g class="ytick"><text text-anchor="end" x="86.6" y="4.199999999999999" style="font-family: 'Open Sans', verdana, arial, sans-serif; font-size: 12px; fill: rgb(0, 0, 0); fill-opacity: 1; white-space: pre;" transform="translate(-10,163.32999999999998)">0.25</text></g><g class="ytick"><text text-anchor="end" x="86.6" y="4.199999999999999" style="font-family: 'Open Sans', verdana, arial, sans-serif; font-size: 12px; fill: rgb(0, 0, 0); fill-opacity: 1; white-space: pre;" transform="translate(-10,50)">0.3</text></g></g><g class="overaxes-above"/></g></g><g class="polarlayer"/><g class="smithlayer"/><g class="ternarylayer"/><g class="geolayer"/><g class="funnelarealayer"/><g class="pielayer"/><g class="iciclelayer"/><g class="treemaplayer"/><g class="sunburstlayer"/><g class="glimages"/><defs id="topdefs-c63c15"><g class="clips"/></defs><g class="layer-above"><g class="imagelayer"/><g class="shapelayer"/></g><g class="infolayer"><g class="g-gtitle"><text class="gtitle" x="400" y="20" text-anchor="middle" dy="0.7em" style="opacity: 1; font-family: 'Open Sans', verdana, arial, sans-serif; font-size: 16px; fill: rgb(0, 0, 0); fill-opacity: 1; white-space: pre;">Qwen3.6-35B-A3B</text></g><g class="g-xtitle"><text class="xtitle" x="430" y="782.700390625" text-anchor="middle" style="opacity: 1; font-family: 'Open Sans', verdana, arial, sans-serif; font-size: 14px; fill: rgb(0, 0, 0); fill-opacity: 1; white-space: pre;">RAM (GiB)</text></g><g class="g-ytitle"><text class="ytitle" transform="rotate(-90,29.933984375,390)" x="29.933984375" y="390" text-anchor="middle" style="opacity: 1; font-family: 'Open Sans', verdana, arial, sans-serif; font-size: 14px; fill: rgb(0, 0, 0); fill-opacity: 1; white-space: pre;">KL divergence (mean, nats)</text></g></g></svg>