<svg class="main-svg" xmlns="http://www.w3.org/2000/svg" xmlns:xlink="http://www.w3.org/1999/xlink" width="746" height="800" style="" viewBox="0 0 746 800"><rect x="0" y="0" width="746" height="800" style="fill: rgb(255, 255, 255); fill-opacity: 1;"/><defs id="defs-a369dd"><g class="clips"><clipPath id="clipa369ddxyplot" class="plotclip"><rect width="646" height="650"/></clipPath><clipPath class="axesclip" id="clipa369ddx"><rect x="80" y="0" width="646" height="800"/></clipPath><clipPath class="axesclip" id="clipa369ddy"><rect x="0" y="75" width="746" height="650"/></clipPath><clipPath class="axesclip" id="clipa369ddxy"><rect x="80" y="75" width="646" height="650"/></clipPath></g><g class="gradients"/><g class="patterns"/></defs><g class="bglayer"/><g class="layer-below"><g class="imagelayer"/><g class="shapelayer"/></g><g class="cartesianlayer"><g class="subplot xy"><g class="layer-subplot"><g class="shapelayer"/><g class="imagelayer"/></g><g class="minor-gridlayer"><g class="x"><path class="xgrid crisp" transform="translate(101.53,0)" d="M0,75v650" style="stroke: rgb(245, 245, 245); stroke-opacity: 1; stroke-width: 0.5px;"/><path class="xgrid crisp" transform="translate(123.07,0)" d="M0,75v650" style="stroke: rgb(245, 245, 245); stroke-opacity: 1; stroke-width: 0.5px;"/><path class="xgrid crisp" transform="translate(144.6,0)" d="M0,75v650" style="stroke: rgb(245, 245, 245); stroke-opacity: 1; stroke-width: 0.5px;"/><path class="xgrid crisp" transform="translate(166.13,0)" d="M0,75v650" style="stroke: rgb(245, 245, 245); stroke-opacity: 1; stroke-width: 0.5px;"/><path class="xgrid crisp" transform="translate(209.2,0)" d="M0,75v650" style="stroke: rgb(245, 245, 245); stroke-opacity: 1; stroke-width: 0.5px;"/><path class="xgrid crisp" transform="translate(230.73,0)" d="M0,75v650" style="stroke: rgb(245, 245, 245); stroke-opacity: 1; stroke-width: 0.5px;"/><path class="xgrid crisp" transform="translate(252.27,0)" d="M0,75v650" style="stroke: rgb(245, 245, 245); stroke-opacity: 1; stroke-width: 0.5px;"/><path class="xgrid crisp" transform="translate(273.8,0)" d="M0,75v650" style="stroke: rgb(245, 245, 245); stroke-opacity: 1; stroke-width: 0.5px;"/><path class="xgrid crisp" transform="translate(316.87,0)" d="M0,75v650" style="stroke: rgb(245, 245, 245); stroke-opacity: 1; stroke-width: 0.5px;"/><path class="xgrid crisp" transform="translate(338.4,0)" d="M0,75v650" style="stroke: rgb(245, 245, 245); stroke-opacity: 1; stroke-width: 0.5px;"/><path class="xgrid crisp" transform="translate(359.93,0)" d="M0,75v650" style="stroke: rgb(245, 245, 245); stroke-opacity: 1; stroke-width: 0.5px;"/><path class="xgrid crisp" transform="translate(381.47,0)" d="M0,75v650" style="stroke: rgb(245, 245, 245); stroke-opacity: 1; stroke-width: 0.5px;"/><path class="xgrid crisp" transform="translate(424.53,0)" d="M0,75v650" style="stroke: rgb(245, 245, 245); stroke-opacity: 1; stroke-width: 0.5px;"/><path class="xgrid crisp" transform="translate(446.07,0)" d="M0,75v650" style="stroke: rgb(245, 245, 245); stroke-opacity: 1; stroke-width: 0.5px;"/><path class="xgrid crisp" transform="translate(467.6,0)" d="M0,75v650" style="stroke: rgb(245, 245, 245); stroke-opacity: 1; stroke-width: 0.5px;"/><path class="xgrid crisp" transform="translate(489.13,0)" d="M0,75v650" style="stroke: rgb(245, 245, 245); stroke-opacity: 1; stroke-width: 0.5px;"/><path class="xgrid crisp" transform="translate(532.2,0)" d="M0,75v650" style="stroke: rgb(245, 245, 245); stroke-opacity: 1; stroke-width: 0.5px;"/><path class="xgrid crisp" transform="translate(553.73,0)" d="M0,75v650" style="stroke: rgb(245, 245, 245); stroke-opacity: 1; stroke-width: 0.5px;"/><path class="xgrid crisp" transform="translate(575.27,0)" d="M0,75v650" style="stroke: rgb(245, 245, 245); stroke-opacity: 1; stroke-width: 0.5px;"/><path class="xgrid crisp" transform="translate(596.8,0)" d="M0,75v650" style="stroke: rgb(245, 245, 245); stroke-opacity: 1; stroke-width: 0.5px;"/><path class="xgrid crisp" transform="translate(639.87,0)" d="M0,75v650" style="stroke: rgb(245, 245, 245); stroke-opacity: 1; stroke-width: 0.5px;"/><path class="xgrid crisp" transform="translate(661.4,0)" d="M0,75v650" style="stroke: rgb(245, 245, 245); stroke-opacity: 1; stroke-width: 0.5px;"/><path class="xgrid crisp" transform="translate(682.93,0)" d="M0,75v650" style="stroke: rgb(245, 245, 245); stroke-opacity: 1; stroke-width: 0.5px;"/><path class="xgrid crisp" transform="translate(704.47,0)" d="M0,75v650" style="stroke: rgb(245, 245, 245); stroke-opacity: 1; stroke-width: 0.5px;"/></g><g class="y"><path class="ygrid crisp" transform="translate(0,703.33)" d="M80,0h646" style="stroke: rgb(245, 245, 245); stroke-opacity: 1; stroke-width: 0.5px;"/><path class="ygrid crisp" transform="translate(0,681.67)" d="M80,0h646" style="stroke: rgb(245, 245, 245); stroke-opacity: 1; stroke-width: 0.5px;"/><path class="ygrid crisp" transform="translate(0,660)" d="M80,0h646" style="stroke: rgb(245, 245, 245); stroke-opacity: 1; stroke-width: 0.5px;"/><path class="ygrid crisp" transform="translate(0,638.33)" d="M80,0h646" style="stroke: rgb(245, 245, 245); stroke-opacity: 1; stroke-width: 0.5px;"/><path class="ygrid crisp" transform="translate(0,595)" d="M80,0h646" style="stroke: rgb(245, 245, 245); stroke-opacity: 1; stroke-width: 0.5px;"/><path class="ygrid crisp" transform="translate(0,573.3299999999999)" d="M80,0h646" style="stroke: rgb(245, 245, 245); stroke-opacity: 1; stroke-width: 0.5px;"/><path class="ygrid crisp" transform="translate(0,551.6700000000001)" d="M80,0h646" style="stroke: rgb(245, 245, 245); stroke-opacity: 1; stroke-width: 0.5px;"/><path class="ygrid crisp" transform="translate(0,530)" d="M80,0h646" style="stroke: rgb(245, 245, 245); stroke-opacity: 1; stroke-width: 0.5px;"/><path class="ygrid crisp" transform="translate(0,486.67)" d="M80,0h646" style="stroke: rgb(245, 245, 245); stroke-opacity: 1; stroke-width: 0.5px;"/><path class="ygrid crisp" transform="translate(0,465)" d="M80,0h646" style="stroke: rgb(245, 245, 245); stroke-opacity: 1; stroke-width: 0.5px;"/><path class="ygrid crisp" transform="translate(0,443.33)" d="M80,0h646" style="stroke: rgb(245, 245, 245); stroke-opacity: 1; stroke-width: 0.5px;"/><path class="ygrid crisp" transform="translate(0,421.67)" d="M80,0h646" style="stroke: rgb(245, 245, 245); stroke-opacity: 1; stroke-width: 0.5px;"/><path class="ygrid crisp" transform="translate(0,378.33)" d="M80,0h646" style="stroke: rgb(245, 245, 245); stroke-opacity: 1; stroke-width: 0.5px;"/><path class="ygrid crisp" transform="translate(0,356.67)" d="M80,0h646" style="stroke: rgb(245, 245, 245); stroke-opacity: 1; stroke-width: 0.5px;"/><path class="ygrid crisp" transform="translate(0,335)" d="M80,0h646" style="stroke: rgb(245, 245, 245); stroke-opacity: 1; stroke-width: 0.5px;"/><path class="ygrid crisp" transform="translate(0,313.33000000000004)" d="M80,0h646" style="stroke: rgb(245, 245, 245); stroke-opacity: 1; stroke-width: 0.5px;"/><path class="ygrid crisp" transform="translate(0,270)" d="M80,0h646" style="stroke: rgb(245, 245, 245); stroke-opacity: 1; stroke-width: 0.5px;"/><path class="ygrid crisp" transform="translate(0,248.33)" d="M80,0h646" style="stroke: rgb(245, 245, 245); stroke-opacity: 1; stroke-width: 0.5px;"/><path class="ygrid crisp" transform="translate(0,226.67)" d="M80,0h646" style="stroke: rgb(245, 245, 245); stroke-opacity: 1; stroke-width: 0.5px;"/><path class="ygrid crisp" transform="translate(0,205)" d="M80,0h646" style="stroke: rgb(245, 245, 245); stroke-opacity: 1; stroke-width: 0.5px;"/><path class="ygrid crisp" transform="translate(0,161.67000000000002)" d="M80,0h646" style="stroke: rgb(245, 245, 245); stroke-opacity: 1; stroke-width: 0.5px;"/><path class="ygrid crisp" transform="translate(0,140)" d="M80,0h646" style="stroke: rgb(245, 245, 245); stroke-opacity: 1; stroke-width: 0.5px;"/><path class="ygrid crisp" transform="translate(0,118.33)" d="M80,0h646" style="stroke: rgb(245, 245, 245); stroke-opacity: 1; stroke-width: 0.5px;"/><path class="ygrid crisp" transform="translate(0,96.67)" d="M80,0h646" style="stroke: rgb(245, 245, 245); stroke-opacity: 1; stroke-width: 0.5px;"/></g></g><g class="gridlayer"><g class="x"><path class="xgrid crisp" transform="translate(187.67000000000002,0)" d="M0,75v650" style="stroke: rgb(211, 211, 211); stroke-opacity: 1; stroke-width: 1px;"/><path class="xgrid crisp" transform="translate(295.33000000000004,0)" d="M0,75v650" style="stroke: rgb(211, 211, 211); stroke-opacity: 1; stroke-width: 1px;"/><path class="xgrid crisp" transform="translate(403,0)" d="M0,75v650" style="stroke: rgb(211, 211, 211); stroke-opacity: 1; stroke-width: 1px;"/><path class="xgrid crisp" transform="translate(510.67,0)" d="M0,75v650" style="stroke: rgb(211, 211, 211); stroke-opacity: 1; stroke-width: 1px;"/><path class="xgrid crisp" transform="translate(618.33,0)" d="M0,75v650" style="stroke: rgb(211, 211, 211); stroke-opacity: 1; stroke-width: 1px;"/></g><g class="y"><path class="ygrid crisp" transform="translate(0,616.67)" d="M80,0h646" style="stroke: rgb(211, 211, 211); stroke-opacity: 1; stroke-width: 1px;"/><path class="ygrid crisp" transform="translate(0,508.33)" d="M80,0h646" style="stroke: rgb(211, 211, 211); stroke-opacity: 1; stroke-width: 1px;"/><path class="ygrid crisp" transform="translate(0,400)" d="M80,0h646" style="stroke: rgb(211, 211, 211); stroke-opacity: 1; stroke-width: 1px;"/><path class="ygrid crisp" transform="translate(0,291.66999999999996)" d="M80,0h646" style="stroke: rgb(211, 211, 211); stroke-opacity: 1; stroke-width: 1px;"/><path class="ygrid crisp" transform="translate(0,183.32999999999998)" d="M80,0h646" style="stroke: rgb(211, 211, 211); stroke-opacity: 1; stroke-width: 1px;"/></g></g><g class="zerolinelayer"/><g class="layer-between"><g class="shapelayer"/><g class="imagelayer"/></g><path class="xlines-below"/><path class="ylines-below"/><g class="overlines-below"/><g class="xaxislayer-below"/><g class="yaxislayer-below"/><g class="overaxes-below"/><g class="overplot"><g class="xy" transform="translate(80,75)" clip-path="url(#clipa369ddxyplot)"><g class="scatterlayer mlayer"><g class="trace scatter trace2d27ec" style="stroke-miterlimit: 2; opacity: 1;"><g class="fills"/><g class="errorbars"/><g class="lines"/><g class="points"><path class="point" transform="translate(30.15,49.09)" d="M4,0A4,4 0 1,1 0,-4A4,4 0 0,1 4,0Z" style="opacity: 1; stroke-width: 0px; fill: rgb(76, 114, 176); fill-opacity: 1;"/><path class="point" transform="translate(102.71,269.14)" d="M4,0A4,4 0 1,1 0,-4A4,4 0 0,1 4,0Z" style="opacity: 1; stroke-width: 0px; fill: rgb(76, 114, 176); fill-opacity: 1;"/><path class="point" transform="translate(129.2,279.72)" d="M4,0A4,4 0 1,1 0,-4A4,4 0 0,1 4,0Z" style="opacity: 1; stroke-width: 0px; fill: rgb(76, 114, 176); fill-opacity: 1;"/><path class="point" transform="translate(190.14,589.17)" d="M4,0A4,4 0 1,1 0,-4A4,4 0 0,1 4,0Z" style="opacity: 1; stroke-width: 0px; fill: rgb(76, 114, 176); fill-opacity: 1;"/><path class="point" transform="translate(274.77,627.78)" d="M4,0A4,4 0 1,1 0,-4A4,4 0 0,1 4,0Z" style="opacity: 1; stroke-width: 0px; fill: rgb(76, 114, 176); fill-opacity: 1;"/><path class="point" transform="translate(355.52,632.54)" d="M4,0A4,4 0 1,1 0,-4A4,4 0 0,1 4,0Z" style="opacity: 1; stroke-width: 0px; fill: rgb(76, 114, 176); fill-opacity: 1;"/><path class="point" transform="translate(522.61,638.69)" d="M4,0A4,4 0 1,1 0,-4A4,4 0 0,1 4,0Z" style="opacity: 1; stroke-width: 0px; fill: rgb(76, 114, 176); fill-opacity: 1;"/></g><g class="text"/></g><g class="trace scatter traceb44c69" style="stroke-miterlimit: 2; opacity: 1;"><g class="fills"/><g class="errorbars"/><g class="lines"/><g class="points"/><g class="text"><g class="textpoint" transform="translate(0,-3.5)"><text x="30.15" y="43.67" text-anchor="start" style="font-family: 'Open Sans', verdana, arial, sans-serif; font-size: 14px; fill: rgb(76, 114, 176); fill-opacity: 1; white-space: pre;">oQ2</text></g><g class="textpoint" transform="translate(0,-3.5)"><text x="102.71" y="263.72" text-anchor="start" style="font-family: 'Open Sans', verdana, arial, sans-serif; font-size: 14px; fill: rgb(76, 114, 176); fill-opacity: 1; white-space: pre;">oQ3</text></g><g class="textpoint" transform="translate(0,-3.5)"><text x="129.2" y="274.3" text-anchor="start" style="font-family: 'Open Sans', verdana, arial, sans-serif; font-size: 14px; fill: rgb(76, 114, 176); fill-opacity: 1; white-space: pre;">oQ3.5</text></g><g class="textpoint" transform="translate(0,-3.5)"><text x="190.14" y="583.75" text-anchor="start" style="font-family: 'Open Sans', verdana, arial, sans-serif; font-size: 14px; fill: rgb(76, 114, 176); fill-opacity: 1; white-space: pre;">oQ4</text></g><g class="textpoint" transform="translate(0,-3.5)"><text x="274.77" y="622.37" text-anchor="start" style="font-family: 'Open Sans', verdana, arial, sans-serif; font-size: 14px; fill: rgb(76, 114, 176); fill-opacity: 1; white-space: pre;">oQ5</text></g><g class="textpoint" transform="translate(0,-3.5)"><text x="355.52" y="627.13" text-anchor="start" style="font-family: 'Open Sans', verdana, arial, sans-serif; font-size: 14px; fill: rgb(76, 114, 176); fill-opacity: 1; white-space: pre;">oQ6</text></g><g class="textpoint" transform="translate(0,-3.5)"><text x="522.61" y="633.28" text-anchor="start" style="font-family: 'Open Sans', verdana, arial, sans-serif; font-size: 14px; fill: rgb(76, 114, 176); fill-opacity: 1; white-space: pre;">oQ8</text></g></g></g><g class="trace scatter trace77e45c" style="stroke-miterlimit: 2; opacity: 1;"><g class="fills"/><g class="errorbars"/><g class="lines"/><g class="points"><path class="point" transform="translate(2.15,-6053.13)" d="M4,0A4,4 0 1,1 0,-4A4,4 0 0,1 4,0Z" style="opacity: 1; stroke-width: 0px; fill: rgb(221, 132, 82); fill-opacity: 1;"/><path class="point" transform="translate(89.15,150.65)" d="M4,0A4,4 0 1,1 0,-4A4,4 0 0,1 4,0Z" style="opacity: 1; stroke-width: 0px; fill: rgb(221, 132, 82); fill-opacity: 1;"/><path class="point" transform="translate(175.93,514.58)" d="M4,0A4,4 0 1,1 0,-4A4,4 0 0,1 4,0Z" style="opacity: 1; stroke-width: 0px; fill: rgb(221, 132, 82); fill-opacity: 1;"/><path class="point" transform="translate(262.71,607.68)" d="M4,0A4,4 0 1,1 0,-4A4,4 0 0,1 4,0Z" style="opacity: 1; stroke-width: 0px; fill: rgb(221, 132, 82); fill-opacity: 1;"/><path class="point" transform="translate(349.49,630.3)" d="M4,0A4,4 0 1,1 0,-4A4,4 0 0,1 4,0Z" style="opacity: 1; stroke-width: 0px; fill: rgb(221, 132, 82); fill-opacity: 1;"/><path class="point" transform="translate(523.26,638.3)" d="M4,0A4,4 0 1,1 0,-4A4,4 0 0,1 4,0Z" style="opacity: 1; stroke-width: 0px; fill: rgb(221, 132, 82); fill-opacity: 1;"/></g><g class="text"/></g><g class="trace scatter trace11e915" style="stroke-miterlimit: 2; opacity: 1;"><g class="fills"/><g class="errorbars"/><g class="lines"/><g class="points"/><g class="text"><g class="textpoint" transform="translate(0,-3.5)"><text x="2.15" y="-6058.54" text-anchor="start" style="font-family: 'Open Sans', verdana, arial, sans-serif; font-size: 14px; fill: rgb(221, 132, 82); fill-opacity: 1; white-space: pre;">Q2</text></g><g class="textpoint" transform="translate(0,-3.5)"><text x="89.15" y="145.23" text-anchor="start" style="font-family: 'Open Sans', verdana, arial, sans-serif; font-size: 14px; fill: rgb(221, 132, 82); fill-opacity: 1; white-space: pre;">Q3</text></g><g class="textpoint" transform="translate(0,-3.5)"><text x="175.93" y="509.17" text-anchor="start" style="font-family: 'Open Sans', verdana, arial, sans-serif; font-size: 14px; fill: rgb(221, 132, 82); fill-opacity: 1; white-space: pre;">Q4</text></g><g class="textpoint" transform="translate(0,-3.5)"><text x="262.71" y="602.27" text-anchor="start" style="font-family: 'Open Sans', verdana, arial, sans-serif; font-size: 14px; fill: rgb(221, 132, 82); fill-opacity: 1; white-space: pre;">Q5</text></g><g class="textpoint" transform="translate(0,-3.5)"><text x="349.49" y="624.88" text-anchor="end" style="font-family: 'Open Sans', verdana, arial, sans-serif; font-size: 14px; fill: rgb(221, 132, 82); fill-opacity: 1; white-space: pre;">Q6</text></g><g class="textpoint" transform="translate(0,-3.5)"><text x="520.03" y="632.88" text-anchor="end" style="font-family: 'Open Sans', verdana, arial, sans-serif; font-size: 14px; fill: rgb(221, 132, 82); fill-opacity: 1; white-space: pre;">Q8</text></g></g></g><g class="trace scatter tracedda5e2" style="stroke-miterlimit: 2; opacity: 1;"><g class="fills"/><g class="errorbars"/><g class="lines"/><g class="points"><path class="point" transform="translate(154.18,408.79)" d="M4,0A4,4 0 1,1 0,-4A4,4 0 0,1 4,0Z" style="opacity: 1; stroke-width: 0px; fill: rgb(140, 107, 177); fill-opacity: 1;"/><path class="point" transform="translate(501.51,559.02)" d="M4,0A4,4 0 1,1 0,-4A4,4 0 0,1 4,0Z" style="opacity: 1; stroke-width: 0px; fill: rgb(140, 107, 177); fill-opacity: 1;"/></g><g class="text"/></g><g class="trace scatter trace926ac1" style="stroke-miterlimit: 2; opacity: 1;"><g class="fills"/><g class="errorbars"/><g class="lines"/><g class="points"/><g class="text"><g class="textpoint" transform="translate(0,-3.5)"><text x="154.18" y="403.37" text-anchor="start" style="font-family: 'Open Sans', verdana, arial, sans-serif; font-size: 14px; fill: rgb(140, 107, 177); fill-opacity: 1; white-space: pre;">MXFP4</text></g><g class="textpoint" transform="translate(0,-3.5)"><text x="501.51" y="553.6" text-anchor="start" style="font-family: 'Open Sans', verdana, arial, sans-serif; font-size: 14px; fill: rgb(140, 107, 177); fill-opacity: 1; white-space: pre;">MXFP8</text></g></g></g><g class="trace scatter trace42b148" style="stroke-miterlimit: 2; opacity: 1;"><g class="fills"/><g class="errorbars"/><g class="lines"/><g class="points"><path class="point" transform="translate(115.2,544.73)" d="M4,0A4,4 0 1,1 0,-4A4,4 0 0,1 4,0Z" style="opacity: 1; stroke-width: 0px; fill: rgb(85, 168, 104); fill-opacity: 1;"/><path class="point" transform="translate(200.69,614.56)" d="M4,0A4,4 0 1,1 0,-4A4,4 0 0,1 4,0Z" style="opacity: 1; stroke-width: 0px; fill: rgb(85, 168, 104); fill-opacity: 1;"/></g><g class="text"/></g><g class="trace scatter tracea56853" style="stroke-miterlimit: 2; opacity: 1;"><g class="fills"/><g class="errorbars"/><g class="lines"/><g class="points"/><g class="text"><g class="textpoint" transform="translate(0,-3.5)"><text x="115.2" y="539.32" text-anchor="start" style="font-family: 'Open Sans', verdana, arial, sans-serif; font-size: 14px; fill: rgb(85, 168, 104); fill-opacity: 1; white-space: pre;">UD3</text></g><g class="textpoint" transform="translate(0,-3.5)"><text x="200.69" y="609.14" text-anchor="start" style="font-family: 'Open Sans', verdana, arial, sans-serif; font-size: 14px; fill: rgb(85, 168, 104); fill-opacity: 1; white-space: pre;">UD4</text></g></g></g></g></g></g><g class="zerolinelayer-above"/><path class="xlines-above crisp" d="M79,725.5H727M79,74.5H727" style="fill: none; stroke-width: 1px; stroke: rgb(0, 0, 0); stroke-opacity: 1;"/><path class="ylines-above crisp" d="M79.5,75V725M726.5,75V725" style="fill: none; stroke-width: 1px; stroke: rgb(0, 0, 0); stroke-opacity: 1;"/><g class="overlines-above"/><g class="xaxislayer-above"><g class="xtick"><text text-anchor="middle" x="0" y="740.4" transform="translate(80,10)" style="font-family: 'Open Sans', verdana, arial, sans-serif; font-size: 12px; fill: rgb(0, 0, 0); fill-opacity: 1; white-space: pre;">10</text></g><g class="xtick"><text text-anchor="middle" x="0" y="740.4" style="font-family: 'Open Sans', verdana, arial, sans-serif; font-size: 12px; fill: rgb(0, 0, 0); fill-opacity: 1; white-space: pre;" transform="translate(187.67000000000002,10)">15</text></g><g class="xtick"><text text-anchor="middle" x="0" y="740.4" style="font-family: 'Open Sans', verdana, arial, sans-serif; font-size: 12px; fill: rgb(0, 0, 0); fill-opacity: 1; white-space: pre;" transform="translate(295.33000000000004,10)">20</text></g><g class="xtick"><text text-anchor="middle" x="0" y="740.4" style="font-family: 'Open Sans', verdana, arial, sans-serif; font-size: 12px; fill: rgb(0, 0, 0); fill-opacity: 1; white-space: pre;" transform="translate(403,10)">25</text></g><g class="xtick"><text text-anchor="middle" x="0" y="740.4" style="font-family: 'Open Sans', verdana, arial, sans-serif; font-size: 12px; fill: rgb(0, 0, 0); fill-opacity: 1; white-space: pre;" transform="translate(510.67,10)">30</text></g><g class="xtick"><text text-anchor="middle" x="0" y="740.4" style="font-family: 'Open Sans', verdana, arial, sans-serif; font-size: 12px; fill: rgb(0, 0, 0); fill-opacity: 1; white-space: pre;" transform="translate(618.33,10)">35</text></g><g class="xtick"><text text-anchor="middle" x="0" y="740.4" style="font-family: 'Open Sans', verdana, arial, sans-serif; font-size: 12px; fill: rgb(0, 0, 0); fill-opacity: 1; white-space: pre;" transform="translate(726,10)">40</text></g></g><g class="yaxislayer-above"><g class="ytick"><text text-anchor="end" x="76.6" y="4.199999999999999" transform="translate(-10,725)" style="font-family: 'Open Sans', verdana, arial, sans-serif; font-size: 12px; fill: rgb(0, 0, 0); fill-opacity: 1; white-space: pre;">0</text></g><g class="ytick"><text text-anchor="end" x="76.6" y="4.199999999999999" style="font-family: 'Open Sans', verdana, arial, sans-serif; font-size: 12px; fill: rgb(0, 0, 0); fill-opacity: 1; white-space: pre;" transform="translate(-10,616.67)">0.05</text></g><g class="ytick"><text text-anchor="end" x="76.6" y="4.199999999999999" style="font-family: 'Open Sans', verdana, arial, sans-serif; font-size: 12px; fill: rgb(0, 0, 0); fill-opacity: 1; white-space: pre;" transform="translate(-10,508.33)">0.1</text></g><g class="ytick"><text text-anchor="end" x="76.6" y="4.199999999999999" style="font-family: 'Open Sans', verdana, arial, sans-serif; font-size: 12px; fill: rgb(0, 0, 0); fill-opacity: 1; white-space: pre;" transform="translate(-10,400)">0.15</text></g><g class="ytick"><text text-anchor="end" x="76.6" y="4.199999999999999" style="font-family: 'Open Sans', verdana, arial, sans-serif; font-size: 12px; fill: rgb(0, 0, 0); fill-opacity: 1; white-space: pre;" transform="translate(-10,291.66999999999996)">0.2</text></g><g class="ytick"><text text-anchor="end" x="76.6" y="4.199999999999999" style="font-family: 'Open Sans', verdana, arial, sans-serif; font-size: 12px; fill: rgb(0, 0, 0); fill-opacity: 1; white-space: pre;" transform="translate(-10,183.32999999999998)">0.25</text></g><g class="ytick"><text text-anchor="end" x="76.6" y="4.199999999999999" style="font-family: 'Open Sans', verdana, arial, sans-serif; font-size: 12px; fill: rgb(0, 0, 0); fill-opacity: 1; white-space: pre;" transform="translate(-10,75)">0.3</text></g></g><g class="overaxes-above"/></g></g><g class="polarlayer"/><g class="smithlayer"/><g class="ternarylayer"/><g class="geolayer"/><g class="funnelarealayer"/><g class="pielayer"/><g class="iciclelayer"/><g class="treemaplayer"/><g class="sunburstlayer"/><g class="glimages"/><defs id="topdefs-a369dd"><g class="clips"/></defs><g class="layer-above"><g class="imagelayer"/><g class="shapelayer"/></g><g class="infolayer"><g class="g-gtitle"><text class="gtitle" x="373" y="37.5" text-anchor="middle" dy="0em" style="opacity: 1; font-family: 'Open Sans', verdana, arial, sans-serif; font-size: 17px; fill: rgb(0, 0, 0); fill-opacity: 1; white-space: pre;">Qwen3.6-35B-A3B</text></g><g class="g-xtitle"><text class="xtitle" x="403" y="777.700390625" text-anchor="middle" style="opacity: 1; font-family: 'Open Sans', verdana, arial, sans-serif; font-size: 14px; fill: rgb(0, 0, 0); fill-opacity: 1; white-space: pre;">RAM (GiB)</text></g><g class="g-ytitle"><text class="ytitle" transform="rotate(-90,19.933984375,400)" x="19.933984375" y="400" text-anchor="middle" style="opacity: 1; font-family: 'Open Sans', verdana, arial, sans-serif; font-size: 14px; fill: rgb(0, 0, 0); fill-opacity: 1; white-space: pre;">KL Divergence (mean, nats)</text></g></g></svg>