<svg class="main-svg" xmlns="http://www.w3.org/2000/svg" xmlns:xlink="http://www.w3.org/1999/xlink" width="650" height="800" style="" viewBox="0 0 650 800"><rect x="0" y="0" width="650" height="800" style="fill: rgb(255, 255, 255); fill-opacity: 1;"/><defs id="defs-e10e48"><g class="clips"><clipPath id="clipe10e48xyplot" class="plotclip"><rect width="587" height="699"/></clipPath><clipPath class="axesclip" id="clipe10e48x"><rect x="63" y="0" width="587" height="800"/></clipPath><clipPath class="axesclip" id="clipe10e48y"><rect x="0" y="50" width="650" height="699"/></clipPath><clipPath class="axesclip" id="clipe10e48xy"><rect x="63" y="50" width="587" height="699"/></clipPath></g><g class="gradients"/><g class="patterns"/></defs><g class="bglayer"/><g class="layer-below"><g class="imagelayer"/><g class="shapelayer"/></g><g class="cartesianlayer"><g class="subplot xy"><g class="layer-subplot"><g class="shapelayer"/><g class="imagelayer"/></g><g class="minor-gridlayer"><g class="x"><path class="xgrid crisp" transform="translate(85.58,0)" d="M0,50v699" style="stroke: rgb(245, 245, 245); stroke-opacity: 1; stroke-width: 0.5px;"/><path class="xgrid crisp" transform="translate(108.15,0)" d="M0,50v699" style="stroke: rgb(245, 245, 245); stroke-opacity: 1; stroke-width: 0.5px;"/><path class="xgrid crisp" transform="translate(130.73000000000002,0)" d="M0,50v699" style="stroke: rgb(245, 245, 245); stroke-opacity: 1; stroke-width: 0.5px;"/><path class="xgrid crisp" transform="translate(153.31,0)" d="M0,50v699" style="stroke: rgb(245, 245, 245); stroke-opacity: 1; stroke-width: 0.5px;"/><path class="xgrid crisp" transform="translate(198.46,0)" d="M0,50v699" style="stroke: rgb(245, 245, 245); stroke-opacity: 1; stroke-width: 0.5px;"/><path class="xgrid crisp" transform="translate(221.04,0)" d="M0,50v699" style="stroke: rgb(245, 245, 245); stroke-opacity: 1; stroke-width: 0.5px;"/><path class="xgrid crisp" transform="translate(243.62,0)" d="M0,50v699" style="stroke: rgb(245, 245, 245); stroke-opacity: 1; stroke-width: 0.5px;"/><path class="xgrid crisp" transform="translate(266.19,0)" d="M0,50v699" style="stroke: rgb(245, 245, 245); stroke-opacity: 1; stroke-width: 0.5px;"/><path class="xgrid crisp" transform="translate(311.35,0)" d="M0,50v699" style="stroke: rgb(245, 245, 245); stroke-opacity: 1; stroke-width: 0.5px;"/><path class="xgrid crisp" transform="translate(333.92,0)" d="M0,50v699" style="stroke: rgb(245, 245, 245); stroke-opacity: 1; stroke-width: 0.5px;"/><path class="xgrid crisp" transform="translate(356.5,0)" d="M0,50v699" style="stroke: rgb(245, 245, 245); stroke-opacity: 1; stroke-width: 0.5px;"/><path class="xgrid crisp" transform="translate(379.08,0)" d="M0,50v699" style="stroke: rgb(245, 245, 245); stroke-opacity: 1; stroke-width: 0.5px;"/><path class="xgrid crisp" transform="translate(424.23,0)" d="M0,50v699" style="stroke: rgb(245, 245, 245); stroke-opacity: 1; stroke-width: 0.5px;"/><path class="xgrid crisp" transform="translate(446.81,0)" d="M0,50v699" style="stroke: rgb(245, 245, 245); stroke-opacity: 1; stroke-width: 0.5px;"/><path class="xgrid crisp" transform="translate(469.38,0)" d="M0,50v699" style="stroke: rgb(245, 245, 245); stroke-opacity: 1; stroke-width: 0.5px;"/><path class="xgrid crisp" transform="translate(491.96,0)" d="M0,50v699" style="stroke: rgb(245, 245, 245); stroke-opacity: 1; stroke-width: 0.5px;"/><path class="xgrid crisp" transform="translate(537.12,0)" d="M0,50v699" style="stroke: rgb(245, 245, 245); stroke-opacity: 1; stroke-width: 0.5px;"/><path class="xgrid crisp" transform="translate(559.69,0)" d="M0,50v699" style="stroke: rgb(245, 245, 245); stroke-opacity: 1; stroke-width: 0.5px;"/><path class="xgrid crisp" transform="translate(582.27,0)" d="M0,50v699" style="stroke: rgb(245, 245, 245); stroke-opacity: 1; stroke-width: 0.5px;"/><path class="xgrid crisp" transform="translate(604.85,0)" d="M0,50v699" style="stroke: rgb(245, 245, 245); stroke-opacity: 1; stroke-width: 0.5px;"/></g><g class="y"><path class="ygrid crisp" transform="translate(0,725.7)" d="M63,0h587" style="stroke: rgb(245, 245, 245); stroke-opacity: 1; stroke-width: 0.5px;"/><path class="ygrid crisp" transform="translate(0,702.4)" d="M63,0h587" style="stroke: rgb(245, 245, 245); stroke-opacity: 1; stroke-width: 0.5px;"/><path class="ygrid crisp" transform="translate(0,679.1)" d="M63,0h587" style="stroke: rgb(245, 245, 245); stroke-opacity: 1; stroke-width: 0.5px;"/><path class="ygrid crisp" transform="translate(0,655.8)" d="M63,0h587" style="stroke: rgb(245, 245, 245); stroke-opacity: 1; stroke-width: 0.5px;"/><path class="ygrid crisp" transform="translate(0,609.2)" d="M63,0h587" style="stroke: rgb(245, 245, 245); stroke-opacity: 1; stroke-width: 0.5px;"/><path class="ygrid crisp" transform="translate(0,585.9)" d="M63,0h587" style="stroke: rgb(245, 245, 245); stroke-opacity: 1; stroke-width: 0.5px;"/><path class="ygrid crisp" transform="translate(0,562.6)" d="M63,0h587" style="stroke: rgb(245, 245, 245); stroke-opacity: 1; stroke-width: 0.5px;"/><path class="ygrid crisp" transform="translate(0,539.3)" d="M63,0h587" style="stroke: rgb(245, 245, 245); stroke-opacity: 1; stroke-width: 0.5px;"/><path class="ygrid crisp" transform="translate(0,492.7)" d="M63,0h587" style="stroke: rgb(245, 245, 245); stroke-opacity: 1; stroke-width: 0.5px;"/><path class="ygrid crisp" transform="translate(0,469.4)" d="M63,0h587" style="stroke: rgb(245, 245, 245); stroke-opacity: 1; stroke-width: 0.5px;"/><path class="ygrid crisp" transform="translate(0,446.1)" d="M63,0h587" style="stroke: rgb(245, 245, 245); stroke-opacity: 1; stroke-width: 0.5px;"/><path class="ygrid crisp" transform="translate(0,422.8)" d="M63,0h587" style="stroke: rgb(245, 245, 245); stroke-opacity: 1; stroke-width: 0.5px;"/><path class="ygrid crisp" transform="translate(0,376.2)" d="M63,0h587" style="stroke: rgb(245, 245, 245); stroke-opacity: 1; stroke-width: 0.5px;"/><path class="ygrid crisp" transform="translate(0,352.9)" d="M63,0h587" style="stroke: rgb(245, 245, 245); stroke-opacity: 1; stroke-width: 0.5px;"/><path class="ygrid crisp" transform="translate(0,329.6)" d="M63,0h587" style="stroke: rgb(245, 245, 245); stroke-opacity: 1; stroke-width: 0.5px;"/><path class="ygrid crisp" transform="translate(0,306.3)" d="M63,0h587" style="stroke: rgb(245, 245, 245); stroke-opacity: 1; stroke-width: 0.5px;"/><path class="ygrid crisp" transform="translate(0,259.7)" d="M63,0h587" style="stroke: rgb(245, 245, 245); stroke-opacity: 1; stroke-width: 0.5px;"/><path class="ygrid crisp" transform="translate(0,236.4)" d="M63,0h587" style="stroke: rgb(245, 245, 245); stroke-opacity: 1; stroke-width: 0.5px;"/><path class="ygrid crisp" transform="translate(0,213.1)" d="M63,0h587" style="stroke: rgb(245, 245, 245); stroke-opacity: 1; stroke-width: 0.5px;"/><path class="ygrid crisp" transform="translate(0,189.8)" d="M63,0h587" style="stroke: rgb(245, 245, 245); stroke-opacity: 1; stroke-width: 0.5px;"/><path class="ygrid crisp" transform="translate(0,143.2)" d="M63,0h587" style="stroke: rgb(245, 245, 245); stroke-opacity: 1; stroke-width: 0.5px;"/><path class="ygrid crisp" transform="translate(0,119.9)" d="M63,0h587" style="stroke: rgb(245, 245, 245); stroke-opacity: 1; stroke-width: 0.5px;"/><path class="ygrid crisp" transform="translate(0,96.6)" d="M63,0h587" style="stroke: rgb(245, 245, 245); stroke-opacity: 1; stroke-width: 0.5px;"/><path class="ygrid crisp" transform="translate(0,73.3)" d="M63,0h587" style="stroke: rgb(245, 245, 245); stroke-opacity: 1; stroke-width: 0.5px;"/></g></g><g class="gridlayer"><g class="x"><path class="xgrid crisp" transform="translate(175.88,0)" d="M0,50v699" style="stroke: rgb(211, 211, 211); stroke-opacity: 1; stroke-width: 1px;"/><path class="xgrid crisp" transform="translate(288.77,0)" d="M0,50v699" style="stroke: rgb(211, 211, 211); stroke-opacity: 1; stroke-width: 1px;"/><path class="xgrid crisp" transform="translate(401.65,0)" d="M0,50v699" style="stroke: rgb(211, 211, 211); stroke-opacity: 1; stroke-width: 1px;"/><path class="xgrid crisp" transform="translate(514.54,0)" d="M0,50v699" style="stroke: rgb(211, 211, 211); stroke-opacity: 1; stroke-width: 1px;"/><path class="xgrid crisp" transform="translate(627.42,0)" d="M0,50v699" style="stroke: rgb(211, 211, 211); stroke-opacity: 1; stroke-width: 1px;"/></g><g class="y"><path class="ygrid crisp" transform="translate(0,632.5)" d="M63,0h587" style="stroke: rgb(211, 211, 211); stroke-opacity: 1; stroke-width: 1px;"/><path class="ygrid crisp" transform="translate(0,516)" d="M63,0h587" style="stroke: rgb(211, 211, 211); stroke-opacity: 1; stroke-width: 1px;"/><path class="ygrid crisp" transform="translate(0,399.5)" d="M63,0h587" style="stroke: rgb(211, 211, 211); stroke-opacity: 1; stroke-width: 1px;"/><path class="ygrid crisp" transform="translate(0,283)" d="M63,0h587" style="stroke: rgb(211, 211, 211); stroke-opacity: 1; stroke-width: 1px;"/><path class="ygrid crisp" transform="translate(0,166.5)" d="M63,0h587" style="stroke: rgb(211, 211, 211); stroke-opacity: 1; stroke-width: 1px;"/></g></g><g class="zerolinelayer"><path class="yzl zl crisp" transform="translate(0,749)" d="M63,0h587" style="stroke: rgb(255, 255, 255); stroke-opacity: 1; stroke-width: 2px;"/></g><g class="layer-between"><g class="shapelayer"/><g class="imagelayer"/></g><path class="xlines-below"/><path class="ylines-below"/><g class="overlines-below"/><g class="xaxislayer-below"/><g class="yaxislayer-below"/><g class="overaxes-below"/><g class="overplot"><g class="xy" transform="translate(63,50)" clip-path="url(#clipe10e48xyplot)"><g class="scatterlayer mlayer"><g class="trace scatter trace1d6fe8" style="stroke-miterlimit: 2; opacity: 1;"><g class="fills"/><g class="errorbars"/><g class="lines"/><g class="points"><path class="point" transform="translate(31.61,125.03)" d="M4,0A4,4 0 1,1 0,-4A4,4 0 0,1 4,0Z" style="opacity: 1; stroke-width: 0px; fill: rgb(31, 119, 180); fill-opacity: 1;"/><path class="point" transform="translate(111.98,386.42)" d="M4,0A4,4 0 1,1 0,-4A4,4 0 0,1 4,0Z" style="opacity: 1; stroke-width: 0px; fill: rgb(31, 119, 180); fill-opacity: 1;"/><path class="point" transform="translate(139.3,404.91)" d="M4,0A4,4 0 1,1 0,-4A4,4 0 0,1 4,0Z" style="opacity: 1; stroke-width: 0px; fill: rgb(31, 119, 180); fill-opacity: 1;"/><path class="point" transform="translate(202.74,659.82)" d="M4,0A4,4 0 1,1 0,-4A4,4 0 0,1 4,0Z" style="opacity: 1; stroke-width: 0px; fill: rgb(31, 119, 180); fill-opacity: 1;"/><path class="point" transform="translate(288.08,679.73)" d="M4,0A4,4 0 1,1 0,-4A4,4 0 0,1 4,0Z" style="opacity: 1; stroke-width: 0px; fill: rgb(31, 119, 180); fill-opacity: 1;"/><path class="point" transform="translate(372.75,683.35)" d="M4,0A4,4 0 1,1 0,-4A4,4 0 0,1 4,0Z" style="opacity: 1; stroke-width: 0px; fill: rgb(31, 119, 180); fill-opacity: 1;"/><path class="point" transform="translate(547.94,693.69)" d="M4,0A4,4 0 1,1 0,-4A4,4 0 0,1 4,0Z" style="opacity: 1; stroke-width: 0px; fill: rgb(31, 119, 180); fill-opacity: 1;"/></g><g class="text"/></g><g class="trace scatter tracecc419d" style="stroke-miterlimit: 2; opacity: 1;"><g class="fills"/><g class="errorbars"/><g class="lines"/><g class="points"><path class="point" transform="translate(2.26,-6391.12)" d="M4,0A4,4 0 1,1 0,-4A4,4 0 0,1 4,0Z" style="opacity: 1; stroke-width: 0px; fill: rgb(0, 0, 0); fill-opacity: 1;"/><path class="point" transform="translate(93.47,218.32)" d="M4,0A4,4 0 1,1 0,-4A4,4 0 0,1 4,0Z" style="opacity: 1; stroke-width: 0px; fill: rgb(0, 0, 0); fill-opacity: 1;"/><path class="point" transform="translate(184.45,572.64)" d="M4,0A4,4 0 1,1 0,-4A4,4 0 0,1 4,0Z" style="opacity: 1; stroke-width: 0px; fill: rgb(0, 0, 0); fill-opacity: 1;"/><path class="point" transform="translate(275.44,663.07)" d="M4,0A4,4 0 1,1 0,-4A4,4 0 0,1 4,0Z" style="opacity: 1; stroke-width: 0px; fill: rgb(0, 0, 0); fill-opacity: 1;"/><path class="point" transform="translate(366.42,682.57)" d="M4,0A4,4 0 1,1 0,-4A4,4 0 0,1 4,0Z" style="opacity: 1; stroke-width: 0px; fill: rgb(0, 0, 0); fill-opacity: 1;"/><path class="point" transform="translate(548.62,696.84)" d="M4,0A4,4 0 1,1 0,-4A4,4 0 0,1 4,0Z" style="opacity: 1; stroke-width: 0px; fill: rgb(0, 0, 0); fill-opacity: 1;"/><path class="point" transform="translate(161.65,471.82)" d="M4,0A4,4 0 1,1 0,-4A4,4 0 0,1 4,0Z" style="opacity: 1; stroke-width: 0px; fill: rgb(0, 0, 0); fill-opacity: 1;"/><path class="point" transform="translate(525.82,609.78)" d="M4,0A4,4 0 1,1 0,-4A4,4 0 0,1 4,0Z" style="opacity: 1; stroke-width: 0px; fill: rgb(0, 0, 0); fill-opacity: 1;"/></g><g class="text"/></g><g class="trace scatter tracecd1a79" style="stroke-miterlimit: 2; opacity: 1;"><g class="fills"/><g class="errorbars"/><g class="lines"/><g class="points"/><g class="text"><g class="textpoint" transform="translate(0,-3.5)"><text x="31.61" y="119.21" text-anchor="start" style="font-family: 'Open Sans', verdana, arial, sans-serif; font-size: 14px; fill: rgb(31, 119, 180); fill-opacity: 1; white-space: pre;">oQ2</text></g><g class="textpoint" transform="translate(0,-3.5)"><text x="111.98" y="380.59" text-anchor="start" style="font-family: 'Open Sans', verdana, arial, sans-serif; font-size: 14px; fill: rgb(31, 119, 180); fill-opacity: 1; white-space: pre;">oQ3</text></g><g class="textpoint" transform="translate(0,-3.5)"><text x="139.3" y="399.08" text-anchor="start" style="font-family: 'Open Sans', verdana, arial, sans-serif; font-size: 14px; fill: rgb(31, 119, 180); fill-opacity: 1; white-space: pre;">oQ3.5</text></g><g class="textpoint" transform="translate(0,-3.5)"><text x="202.74" y="654" text-anchor="start" style="font-family: 'Open Sans', verdana, arial, sans-serif; font-size: 14px; fill: rgb(31, 119, 180); fill-opacity: 1; white-space: pre;">oQ4</text></g><g class="textpoint" transform="translate(0,-3.5)"><text x="288.08" y="673.91" text-anchor="start" style="font-family: 'Open Sans', verdana, arial, sans-serif; font-size: 14px; fill: rgb(31, 119, 180); fill-opacity: 1; white-space: pre;">oQ5</text></g><g class="textpoint" transform="translate(0,-3.5)"><text x="372.75" y="677.52" text-anchor="start" style="font-family: 'Open Sans', verdana, arial, sans-serif; font-size: 14px; fill: rgb(31, 119, 180); fill-opacity: 1; white-space: pre;">oQ6</text></g><g class="textpoint" transform="translate(0,-3.5)"><text x="547.94" y="687.87" text-anchor="start" style="font-family: 'Open Sans', verdana, arial, sans-serif; font-size: 14px; fill: rgb(31, 119, 180); fill-opacity: 1; white-space: pre;">oQ8</text></g></g></g><g class="trace scatter trace04d0f8" style="stroke-miterlimit: 2; opacity: 1;"><g class="fills"/><g class="errorbars"/><g class="lines"/><g class="points"/><g class="text"><g class="textpoint" transform="translate(0,-3.5)"><text x="2.26" y="-6396.94" text-anchor="start" style="font-family: 'Open Sans', verdana, arial, sans-serif; font-size: 14px; fill: rgb(0, 0, 0); fill-opacity: 1; white-space: pre;">Q2</text></g><g class="textpoint" transform="translate(0,-3.5)"><text x="93.47" y="212.5" text-anchor="start" style="font-family: 'Open Sans', verdana, arial, sans-serif; font-size: 14px; fill: rgb(0, 0, 0); fill-opacity: 1; white-space: pre;">Q3</text></g><g class="textpoint" transform="translate(0,-3.5)"><text x="184.45" y="566.82" text-anchor="start" style="font-family: 'Open Sans', verdana, arial, sans-serif; font-size: 14px; fill: rgb(0, 0, 0); fill-opacity: 1; white-space: pre;">Q4</text></g><g class="textpoint" transform="translate(0,-3.5)"><text x="275.44" y="657.25" text-anchor="end" style="font-family: 'Open Sans', verdana, arial, sans-serif; font-size: 14px; fill: rgb(0, 0, 0); fill-opacity: 1; white-space: pre;">Q5</text></g><g class="textpoint" transform="translate(0,-3.5)"><text x="366.42" y="676.75" text-anchor="end" style="font-family: 'Open Sans', verdana, arial, sans-serif; font-size: 14px; fill: rgb(0, 0, 0); fill-opacity: 1; white-space: pre;">Q6</text></g><g class="textpoint" transform="translate(0,-3.5)"><text x="545.23" y="691.02" text-anchor="end" style="font-family: 'Open Sans', verdana, arial, sans-serif; font-size: 14px; fill: rgb(0, 0, 0); fill-opacity: 1; white-space: pre;">Q8</text></g><g class="textpoint" transform="translate(0,-3.5)"><text x="161.65" y="466" text-anchor="start" style="font-family: 'Open Sans', verdana, arial, sans-serif; font-size: 14px; fill: rgb(0, 0, 0); fill-opacity: 1; white-space: pre;">MXFP4</text></g><g class="textpoint" transform="translate(0,-3.5)"><text x="525.82" y="603.95" text-anchor="start" style="font-family: 'Open Sans', verdana, arial, sans-serif; font-size: 14px; fill: rgb(0, 0, 0); fill-opacity: 1; white-space: pre;">MXFP8</text></g></g></g></g></g></g><g class="zerolinelayer-above"/><path class="xlines-above crisp" d="M0,0" style="fill: none;"/><path class="ylines-above crisp" d="M0,0" style="fill: none;"/><g class="overlines-above"/><g class="xaxislayer-above"><g class="xtick"><text text-anchor="middle" x="0" y="762" transform="translate(63,10)" style="font-family: 'Open Sans', verdana, arial, sans-serif; font-size: 12px; fill: rgb(0, 0, 0); fill-opacity: 1; white-space: pre;">10</text></g><g class="xtick"><text text-anchor="middle" x="0" y="762" style="font-family: 'Open Sans', verdana, arial, sans-serif; font-size: 12px; fill: rgb(0, 0, 0); fill-opacity: 1; white-space: pre;" transform="translate(175.88,10)">15</text></g><g class="xtick"><text text-anchor="middle" x="0" y="762" style="font-family: 'Open Sans', verdana, arial, sans-serif; font-size: 12px; fill: rgb(0, 0, 0); fill-opacity: 1; white-space: pre;" transform="translate(288.77,10)">20</text></g><g class="xtick"><text text-anchor="middle" x="0" y="762" style="font-family: 'Open Sans', verdana, arial, sans-serif; font-size: 12px; fill: rgb(0, 0, 0); fill-opacity: 1; white-space: pre;" transform="translate(401.65,10)">25</text></g><g class="xtick"><text text-anchor="middle" x="0" y="762" style="font-family: 'Open Sans', verdana, arial, sans-serif; font-size: 12px; fill: rgb(0, 0, 0); fill-opacity: 1; white-space: pre;" transform="translate(514.54,10)">30</text></g><g class="xtick"><text text-anchor="middle" x="0" y="762" style="font-family: 'Open Sans', verdana, arial, sans-serif; font-size: 12px; fill: rgb(0, 0, 0); fill-opacity: 1; white-space: pre;" transform="translate(627.42,10)">35</text></g></g><g class="yaxislayer-above"><g class="ytick"><text text-anchor="end" x="62" y="4.199999999999999" transform="translate(-10,749)" style="font-family: 'Open Sans', verdana, arial, sans-serif; font-size: 12px; fill: rgb(0, 0, 0); fill-opacity: 1; white-space: pre;">0</text></g><g class="ytick"><text text-anchor="end" x="62" y="4.199999999999999" style="font-family: 'Open Sans', verdana, arial, sans-serif; font-size: 12px; fill: rgb(0, 0, 0); fill-opacity: 1; white-space: pre;" transform="translate(-10,632.5)">0.05</text></g><g class="ytick"><text text-anchor="end" x="62" y="4.199999999999999" style="font-family: 'Open Sans', verdana, arial, sans-serif; font-size: 12px; fill: rgb(0, 0, 0); fill-opacity: 1; white-space: pre;" transform="translate(-10,516)">0.1</text></g><g class="ytick"><text text-anchor="end" x="62" y="4.199999999999999" style="font-family: 'Open Sans', verdana, arial, sans-serif; font-size: 12px; fill: rgb(0, 0, 0); fill-opacity: 1; white-space: pre;" transform="translate(-10,399.5)">0.15</text></g><g class="ytick"><text text-anchor="end" x="62" y="4.199999999999999" style="font-family: 'Open Sans', verdana, arial, sans-serif; font-size: 12px; fill: rgb(0, 0, 0); fill-opacity: 1; white-space: pre;" transform="translate(-10,283)">0.2</text></g><g class="ytick"><text text-anchor="end" x="62" y="4.199999999999999" style="font-family: 'Open Sans', verdana, arial, sans-serif; font-size: 12px; fill: rgb(0, 0, 0); fill-opacity: 1; white-space: pre;" transform="translate(-10,166.5)">0.25</text></g><g class="ytick"><text text-anchor="end" x="62" y="4.199999999999999" style="font-family: 'Open Sans', verdana, arial, sans-serif; font-size: 12px; fill: rgb(0, 0, 0); fill-opacity: 1; white-space: pre;" transform="translate(-10,50)">0.3</text></g></g><g class="overaxes-above"/></g></g><g class="polarlayer"/><g class="smithlayer"/><g class="ternarylayer"/><g class="geolayer"/><g class="funnelarealayer"/><g class="pielayer"/><g class="iciclelayer"/><g class="treemaplayer"/><g class="sunburstlayer"/><g class="glimages"/><defs id="topdefs-e10e48"><g class="clips"/></defs><g class="layer-above"><g class="imagelayer"/><g class="shapelayer"/></g><g class="infolayer"><g class="g-gtitle"><text class="gtitle" x="325" y="25" text-anchor="middle" dy="0em" style="opacity: 1; font-family: 'Open Sans', verdana, arial, sans-serif; font-size: 17px; fill: rgb(0, 0, 0); fill-opacity: 1; white-space: pre;">Qwen3.6-35B-A3B</text></g><g class="g-xtitle" transform="translate(0,-2.2999999999999545)"><text class="xtitle" x="356.5" y="799.3" text-anchor="middle" style="opacity: 1; font-family: 'Open Sans', verdana, arial, sans-serif; font-size: 14px; fill: rgb(0, 0, 0); fill-opacity: 1; white-space: pre;">RAM (GiB)</text></g><g class="g-ytitle" transform="translate(8.666015625,0)"><text class="ytitle" transform="rotate(-90,5.334375000000001,399.5)" x="5.334375000000001" y="399.5" text-anchor="middle" style="opacity: 1; font-family: 'Open Sans', verdana, arial, sans-serif; font-size: 14px; fill: rgb(0, 0, 0); fill-opacity: 1; white-space: pre;">KL Divergence (nats)</text></g></g></svg>