<svg class="main-svg" xmlns="http://www.w3.org/2000/svg" xmlns:xlink="http://www.w3.org/1999/xlink" width="800" height="800" style="" viewBox="0 0 800 800"><rect x="0" y="0" width="800" height="800" style="fill: rgb(255, 255, 255); fill-opacity: 1;"/><defs id="defs-341ff5"><g class="clips"><clipPath id="clip341ff5xyplot" class="plotclip"><rect width="680" height="680"/></clipPath><clipPath class="axesclip" id="clip341ff5x"><rect x="90" y="0" width="680" height="800"/></clipPath><clipPath class="axesclip" id="clip341ff5y"><rect x="0" y="50" width="800" height="680"/></clipPath><clipPath class="axesclip" id="clip341ff5xy"><rect x="90" y="50" width="680" height="680"/></clipPath></g><g class="gradients"/><g class="patterns"/></defs><g class="bglayer"/><g class="layer-below"><g class="imagelayer"/><g class="shapelayer"/></g><g class="cartesianlayer"><g class="subplot xy"><g class="layer-subplot"><g class="shapelayer"/><g class="imagelayer"/></g><g class="minor-gridlayer"><g class="x"><path class="xgrid crisp" transform="translate(124,0)" d="M0,50v680" style="stroke: rgb(245, 245, 245); stroke-opacity: 1; stroke-width: 0.5px;"/><path class="xgrid crisp" transform="translate(158,0)" d="M0,50v680" style="stroke: rgb(245, 245, 245); stroke-opacity: 1; stroke-width: 0.5px;"/><path class="xgrid crisp" transform="translate(192,0)" d="M0,50v680" style="stroke: rgb(245, 245, 245); stroke-opacity: 1; stroke-width: 0.5px;"/><path class="xgrid crisp" transform="translate(226,0)" d="M0,50v680" style="stroke: rgb(245, 245, 245); stroke-opacity: 1; stroke-width: 0.5px;"/><path class="xgrid crisp" transform="translate(294,0)" d="M0,50v680" style="stroke: rgb(245, 245, 245); stroke-opacity: 1; stroke-width: 0.5px;"/><path class="xgrid crisp" transform="translate(328,0)" d="M0,50v680" style="stroke: rgb(245, 245, 245); stroke-opacity: 1; stroke-width: 0.5px;"/><path class="xgrid crisp" transform="translate(362,0)" d="M0,50v680" style="stroke: rgb(245, 245, 245); stroke-opacity: 1; stroke-width: 0.5px;"/><path class="xgrid crisp" transform="translate(396,0)" d="M0,50v680" style="stroke: rgb(245, 245, 245); stroke-opacity: 1; stroke-width: 0.5px;"/><path class="xgrid crisp" transform="translate(464,0)" d="M0,50v680" style="stroke: rgb(245, 245, 245); stroke-opacity: 1; stroke-width: 0.5px;"/><path class="xgrid crisp" transform="translate(498,0)" d="M0,50v680" style="stroke: rgb(245, 245, 245); stroke-opacity: 1; stroke-width: 0.5px;"/><path class="xgrid crisp" transform="translate(532,0)" d="M0,50v680" style="stroke: rgb(245, 245, 245); stroke-opacity: 1; stroke-width: 0.5px;"/><path class="xgrid crisp" transform="translate(566,0)" d="M0,50v680" style="stroke: rgb(245, 245, 245); stroke-opacity: 1; stroke-width: 0.5px;"/><path class="xgrid crisp" transform="translate(634,0)" d="M0,50v680" style="stroke: rgb(245, 245, 245); stroke-opacity: 1; stroke-width: 0.5px;"/><path class="xgrid crisp" transform="translate(668,0)" d="M0,50v680" style="stroke: rgb(245, 245, 245); stroke-opacity: 1; stroke-width: 0.5px;"/><path class="xgrid crisp" transform="translate(702,0)" d="M0,50v680" style="stroke: rgb(245, 245, 245); stroke-opacity: 1; stroke-width: 0.5px;"/><path class="xgrid crisp" transform="translate(736,0)" d="M0,50v680" style="stroke: rgb(245, 245, 245); stroke-opacity: 1; stroke-width: 0.5px;"/></g><g class="y"><path class="ygrid crisp" transform="translate(0,696)" d="M90,0h680" style="stroke: rgb(245, 245, 245); stroke-opacity: 1; stroke-width: 0.5px;"/><path class="ygrid crisp" transform="translate(0,662)" d="M90,0h680" style="stroke: rgb(245, 245, 245); stroke-opacity: 1; stroke-width: 0.5px;"/><path class="ygrid crisp" transform="translate(0,628)" d="M90,0h680" style="stroke: rgb(245, 245, 245); stroke-opacity: 1; stroke-width: 0.5px;"/><path class="ygrid crisp" transform="translate(0,594)" d="M90,0h680" style="stroke: rgb(245, 245, 245); stroke-opacity: 1; stroke-width: 0.5px;"/><path class="ygrid crisp" transform="translate(0,526)" d="M90,0h680" style="stroke: rgb(245, 245, 245); stroke-opacity: 1; stroke-width: 0.5px;"/><path class="ygrid crisp" transform="translate(0,492)" d="M90,0h680" style="stroke: rgb(245, 245, 245); stroke-opacity: 1; stroke-width: 0.5px;"/><path class="ygrid crisp" transform="translate(0,458)" d="M90,0h680" style="stroke: rgb(245, 245, 245); stroke-opacity: 1; stroke-width: 0.5px;"/><path class="ygrid crisp" transform="translate(0,424)" d="M90,0h680" style="stroke: rgb(245, 245, 245); stroke-opacity: 1; stroke-width: 0.5px;"/><path class="ygrid crisp" transform="translate(0,356)" d="M90,0h680" style="stroke: rgb(245, 245, 245); stroke-opacity: 1; stroke-width: 0.5px;"/><path class="ygrid crisp" transform="translate(0,322)" d="M90,0h680" style="stroke: rgb(245, 245, 245); stroke-opacity: 1; stroke-width: 0.5px;"/><path class="ygrid crisp" transform="translate(0,288)" d="M90,0h680" style="stroke: rgb(245, 245, 245); stroke-opacity: 1; stroke-width: 0.5px;"/><path class="ygrid crisp" transform="translate(0,254)" d="M90,0h680" style="stroke: rgb(245, 245, 245); stroke-opacity: 1; stroke-width: 0.5px;"/><path class="ygrid crisp" transform="translate(0,186)" d="M90,0h680" style="stroke: rgb(245, 245, 245); stroke-opacity: 1; stroke-width: 0.5px;"/><path class="ygrid crisp" transform="translate(0,152)" d="M90,0h680" style="stroke: rgb(245, 245, 245); stroke-opacity: 1; stroke-width: 0.5px;"/><path class="ygrid crisp" transform="translate(0,118)" d="M90,0h680" style="stroke: rgb(245, 245, 245); stroke-opacity: 1; stroke-width: 0.5px;"/><path class="ygrid crisp" transform="translate(0,84)" d="M90,0h680" style="stroke: rgb(245, 245, 245); stroke-opacity: 1; stroke-width: 0.5px;"/></g></g><g class="gridlayer"><g class="x"><path class="xgrid crisp" transform="translate(260,0)" d="M0,50v680" style="stroke: rgb(211, 211, 211); stroke-opacity: 1; stroke-width: 1px;"/><path class="xgrid crisp" transform="translate(430,0)" d="M0,50v680" style="stroke: rgb(211, 211, 211); stroke-opacity: 1; stroke-width: 1px;"/><path class="xgrid crisp" transform="translate(600,0)" d="M0,50v680" style="stroke: rgb(211, 211, 211); stroke-opacity: 1; stroke-width: 1px;"/></g><g class="y"><path class="ygrid crisp" transform="translate(0,560)" d="M90,0h680" style="stroke: rgb(211, 211, 211); stroke-opacity: 1; stroke-width: 1px;"/><path class="ygrid crisp" transform="translate(0,390)" d="M90,0h680" style="stroke: rgb(211, 211, 211); stroke-opacity: 1; stroke-width: 1px;"/><path class="ygrid crisp" transform="translate(0,220)" d="M90,0h680" style="stroke: rgb(211, 211, 211); stroke-opacity: 1; stroke-width: 1px;"/></g></g><g class="zerolinelayer"/><g class="layer-between"><g class="shapelayer"/><g class="imagelayer"/></g><path class="xlines-below"/><path class="ylines-below"/><g class="overlines-below"/><g class="xaxislayer-below"/><g class="yaxislayer-below"/><g class="overaxes-below"/><g class="overplot"><g class="xy" transform="translate(90,50)" clip-path="url(#clip341ff5xyplot)"><g class="scatterlayer mlayer"><g class="trace scatter trace8a3478" style="stroke-miterlimit: 2; opacity: 1;"><g class="fills"/><g class="errorbars"/><g class="lines"/><g class="points"><path class="point" transform="translate(160.48,390.47)" d="M4,0A4,4 0 1,1 0,-4A4,4 0 0,1 4,0Z" style="opacity: 1; stroke-width: 0px; fill: rgb(76, 114, 176); fill-opacity: 1;"/></g><g class="text"/></g><g class="trace scatter traceefe0cd" style="stroke-miterlimit: 2; opacity: 1;"><g class="fills"/><g class="errorbars"/><g class="lines"/><g class="points"/><g class="text"><g class="textpoint" transform="translate(0,-3.5)"><text x="160.48" y="388.77" text-anchor="start" style="font-family: 'Open Sans', verdana, arial, sans-serif; font-size: 14px; fill: rgb(76, 114, 176); fill-opacity: 1; white-space: pre;">oQ4</text></g></g></g><g class="trace scatter tracec89113" style="stroke-miterlimit: 2; opacity: 1;"><g class="fills"/><g class="errorbars"/><g class="lines"/><g class="points"><path class="point" transform="translate(-73.78,-1147.5)" d="M4,0A4,4 0 1,1 0,-4A4,4 0 0,1 4,0Z" style="opacity: 1; stroke-width: 0px; fill: rgb(221, 132, 82); fill-opacity: 1;"/><path class="point" transform="translate(32.64,58.44)" d="M4,0A4,4 0 1,1 0,-4A4,4 0 0,1 4,0Z" style="opacity: 1; stroke-width: 0px; fill: rgb(221, 132, 82); fill-opacity: 1;"/><path class="point" transform="translate(139.06,369.22)" d="M4,0A4,4 0 1,1 0,-4A4,4 0 0,1 4,0Z" style="opacity: 1; stroke-width: 0px; fill: rgb(221, 132, 82); fill-opacity: 1;"/><path class="point" transform="translate(245.82,454.22)" d="M4,0A4,4 0 1,1 0,-4A4,4 0 0,1 4,0Z" style="opacity: 1; stroke-width: 0px; fill: rgb(221, 132, 82); fill-opacity: 1;"/><path class="point" transform="translate(352.24,557.15)" d="M4,0A4,4 0 1,1 0,-4A4,4 0 0,1 4,0Z" style="opacity: 1; stroke-width: 0px; fill: rgb(221, 132, 82); fill-opacity: 1;"/><path class="point" transform="translate(565.08,619.9)" d="M4,0A4,4 0 1,1 0,-4A4,4 0 0,1 4,0Z" style="opacity: 1; stroke-width: 0px; fill: rgb(221, 132, 82); fill-opacity: 1;"/></g><g class="text"/></g><g class="trace scatter trace834e65" style="stroke-miterlimit: 2; opacity: 1;"><g class="fills"/><g class="errorbars"/><g class="lines"/><g class="points"/><g class="text"><g class="textpoint" transform="translate(0,-3.5)"><text x="-73.78" y="-1149.2" text-anchor="start" style="font-family: 'Open Sans', verdana, arial, sans-serif; font-size: 14px; fill: rgb(221, 132, 82); fill-opacity: 1; white-space: pre;">Q2</text></g><g class="textpoint" transform="translate(0,-3.5)"><text x="32.64" y="56.74" text-anchor="start" style="font-family: 'Open Sans', verdana, arial, sans-serif; font-size: 14px; fill: rgb(221, 132, 82); fill-opacity: 1; white-space: pre;">Q3</text></g><g class="textpoint" transform="translate(0,-3.5)"><text x="139.06" y="367.52" text-anchor="start" style="font-family: 'Open Sans', verdana, arial, sans-serif; font-size: 14px; fill: rgb(221, 132, 82); fill-opacity: 1; white-space: pre;">Q4</text></g><g class="textpoint" transform="translate(0,-3.5)"><text x="245.82" y="452.52" text-anchor="start" style="font-family: 'Open Sans', verdana, arial, sans-serif; font-size: 14px; fill: rgb(221, 132, 82); fill-opacity: 1; white-space: pre;">Q5</text></g><g class="textpoint" transform="translate(0,-3.5)"><text x="352.24" y="555.45" text-anchor="end" style="font-family: 'Open Sans', verdana, arial, sans-serif; font-size: 14px; fill: rgb(221, 132, 82); fill-opacity: 1; white-space: pre;">Q6</text></g><g class="textpoint" transform="translate(0,-3.5)"><text x="559.98" y="618.2" text-anchor="end" style="font-family: 'Open Sans', verdana, arial, sans-serif; font-size: 14px; fill: rgb(221, 132, 82); fill-opacity: 1; white-space: pre;">Q8</text></g></g></g><g class="trace scatter trace35b095" style="stroke-miterlimit: 2; opacity: 1;"><g class="fills"/><g class="errorbars"/><g class="lines"/><g class="points"><path class="point" transform="translate(392.36,332.03)" d="M4,0A4,4 0 1,1 0,-4A4,4 0 0,1 4,0Z" style="opacity: 1; stroke-width: 0px; fill: rgb(85, 168, 104); fill-opacity: 1;"/><path class="point" transform="translate(460.02,495.39)" d="M4,0A4,4 0 1,1 0,-4A4,4 0 0,1 4,0Z" style="opacity: 1; stroke-width: 0px; fill: rgb(85, 168, 104); fill-opacity: 1;"/><path class="point" transform="translate(596.7,609.61)" d="M4,0A4,4 0 1,1 0,-4A4,4 0 0,1 4,0Z" style="opacity: 1; stroke-width: 0px; fill: rgb(85, 168, 104); fill-opacity: 1;"/></g><g class="text"/></g><g class="trace scatter traced7fdad" style="stroke-miterlimit: 2; opacity: 1;"><g class="fills"/><g class="errorbars"/><g class="lines"/><g class="points"/><g class="text"><g class="textpoint" transform="translate(0,-3.5)"><text x="392.36" y="330.33" text-anchor="start" style="font-family: 'Open Sans', verdana, arial, sans-serif; font-size: 14px; fill: rgb(85, 168, 104); fill-opacity: 1; white-space: pre;">UD3</text></g><g class="textpoint" transform="translate(0,-3.5)"><text x="460.02" y="493.69" text-anchor="start" style="font-family: 'Open Sans', verdana, arial, sans-serif; font-size: 14px; fill: rgb(85, 168, 104); fill-opacity: 1; white-space: pre;">UD4</text></g><g class="textpoint" transform="translate(0,-3.5)"><text x="596.7" y="607.91" text-anchor="start" style="font-family: 'Open Sans', verdana, arial, sans-serif; font-size: 14px; fill: rgb(85, 168, 104); fill-opacity: 1; white-space: pre;">UD6</text></g></g></g></g></g></g><g class="zerolinelayer-above"/><path class="xlines-above crisp" d="M89,730.5H771M89,49.5H771" style="fill: none; stroke-width: 1px; stroke: rgb(0, 0, 0); stroke-opacity: 1;"/><path class="ylines-above crisp" d="M89.5,50V730M770.5,50V730" style="fill: none; stroke-width: 1px; stroke: rgb(0, 0, 0); stroke-opacity: 1;"/><g class="overlines-above"/><g class="xaxislayer-above"><g class="xtick"><text text-anchor="middle" x="0" y="745.4" transform="translate(90,10)" style="font-family: 'Open Sans', verdana, arial, sans-serif; font-size: 12px; fill: rgb(0, 0, 0); fill-opacity: 1; white-space: pre;">10</text></g><g class="xtick"><text text-anchor="middle" x="0" y="745.4" style="font-family: 'Open Sans', verdana, arial, sans-serif; font-size: 12px; fill: rgb(0, 0, 0); fill-opacity: 1; white-space: pre;" transform="translate(260,10)">15</text></g><g class="xtick"><text text-anchor="middle" x="0" y="745.4" style="font-family: 'Open Sans', verdana, arial, sans-serif; font-size: 12px; fill: rgb(0, 0, 0); fill-opacity: 1; white-space: pre;" transform="translate(430,10)">20</text></g><g class="xtick"><text text-anchor="middle" x="0" y="745.4" style="font-family: 'Open Sans', verdana, arial, sans-serif; font-size: 12px; fill: rgb(0, 0, 0); fill-opacity: 1; white-space: pre;" transform="translate(600,10)">25</text></g><g class="xtick"><text text-anchor="middle" x="0" y="745.4" style="font-family: 'Open Sans', verdana, arial, sans-serif; font-size: 12px; fill: rgb(0, 0, 0); fill-opacity: 1; white-space: pre;" transform="translate(770,10)">30</text></g></g><g class="yaxislayer-above"><g class="ytick"><text text-anchor="end" x="86.6" y="4.199999999999999" transform="translate(-10,730)" style="font-family: 'Open Sans', verdana, arial, sans-serif; font-size: 12px; fill: rgb(0, 0, 0); fill-opacity: 1; white-space: pre;">0</text></g><g class="ytick"><text text-anchor="end" x="86.6" y="4.199999999999999" style="font-family: 'Open Sans', verdana, arial, sans-serif; font-size: 12px; fill: rgb(0, 0, 0); fill-opacity: 1; white-space: pre;" transform="translate(-10,560)">0.25</text></g><g class="ytick"><text text-anchor="end" x="86.6" y="4.199999999999999" style="font-family: 'Open Sans', verdana, arial, sans-serif; font-size: 12px; fill: rgb(0, 0, 0); fill-opacity: 1; white-space: pre;" transform="translate(-10,390)">0.5</text></g><g class="ytick"><text text-anchor="end" x="86.6" y="4.199999999999999" style="font-family: 'Open Sans', verdana, arial, sans-serif; font-size: 12px; fill: rgb(0, 0, 0); fill-opacity: 1; white-space: pre;" transform="translate(-10,220)">0.75</text></g><g class="ytick"><text text-anchor="end" x="86.6" y="4.199999999999999" style="font-family: 'Open Sans', verdana, arial, sans-serif; font-size: 12px; fill: rgb(0, 0, 0); fill-opacity: 1; white-space: pre;" transform="translate(-10,50)">1</text></g></g><g class="overaxes-above"/></g></g><g class="polarlayer"/><g class="smithlayer"/><g class="ternarylayer"/><g class="geolayer"/><g class="funnelarealayer"/><g class="pielayer"/><g class="iciclelayer"/><g class="treemaplayer"/><g class="sunburstlayer"/><g class="glimages"/><defs id="topdefs-341ff5"><g class="clips"/></defs><g class="layer-above"><g class="imagelayer"/><g class="shapelayer"/></g><g class="infolayer"><g class="g-gtitle"><text class="gtitle" x="400" y="20" text-anchor="middle" dy="0.7em" style="opacity: 1; font-family: 'Open Sans', verdana, arial, sans-serif; font-size: 16px; fill: rgb(0, 0, 0); fill-opacity: 1; white-space: pre;">Qwen3.6-27B</text></g><g class="g-xtitle"><text class="xtitle" x="430" y="782.700390625" text-anchor="middle" style="opacity: 1; font-family: 'Open Sans', verdana, arial, sans-serif; font-size: 14px; fill: rgb(0, 0, 0); fill-opacity: 1; white-space: pre;">RAM (GiB)</text></g><g class="g-ytitle"><text class="ytitle" transform="rotate(-90,29.933984375,390)" x="29.933984375" y="390" text-anchor="middle" style="opacity: 1; font-family: 'Open Sans', verdana, arial, sans-serif; font-size: 14px; fill: rgb(0, 0, 0); fill-opacity: 1; white-space: pre;">KL divergence (mean, nats)</text></g></g></svg>