<svg class="main-svg" xmlns="http://www.w3.org/2000/svg" xmlns:xlink="http://www.w3.org/1999/xlink" width="662" height="800" style="" viewBox="0 0 662 800"><rect x="0" y="0" width="662" height="800" style="fill: rgb(255, 255, 255); fill-opacity: 1;"/><defs id="defs-766a45"><g class="clips"><clipPath id="clip766a45xyplot" class="plotclip"><rect width="572" height="660"/></clipPath><clipPath class="axesclip" id="clip766a45x"><rect x="80" y="0" width="572" height="800"/></clipPath><clipPath class="axesclip" id="clip766a45y"><rect x="0" y="70" width="662" height="660"/></clipPath><clipPath class="axesclip" id="clip766a45xy"><rect x="80" y="70" width="572" height="660"/></clipPath></g><g class="gradients"/><g class="patterns"/></defs><g class="bglayer"/><g class="layer-below"><g class="imagelayer"/><g class="shapelayer"/></g><g class="cartesianlayer"><g class="subplot xy"><g class="layer-subplot"><g class="shapelayer"/><g class="imagelayer"/></g><g class="minor-gridlayer"><g class="x"><path class="xgrid crisp" transform="translate(102,0)" d="M0,70v660" style="stroke: rgb(245, 245, 245); stroke-opacity: 1; stroke-width: 0.5px;"/><path class="xgrid crisp" transform="translate(124,0)" d="M0,70v660" style="stroke: rgb(245, 245, 245); stroke-opacity: 1; stroke-width: 0.5px;"/><path class="xgrid crisp" transform="translate(146,0)" d="M0,70v660" style="stroke: rgb(245, 245, 245); stroke-opacity: 1; stroke-width: 0.5px;"/><path class="xgrid crisp" transform="translate(168,0)" d="M0,70v660" style="stroke: rgb(245, 245, 245); stroke-opacity: 1; stroke-width: 0.5px;"/><path class="xgrid crisp" transform="translate(212,0)" d="M0,70v660" style="stroke: rgb(245, 245, 245); stroke-opacity: 1; stroke-width: 0.5px;"/><path class="xgrid crisp" transform="translate(234,0)" d="M0,70v660" style="stroke: rgb(245, 245, 245); stroke-opacity: 1; stroke-width: 0.5px;"/><path class="xgrid crisp" transform="translate(256,0)" d="M0,70v660" style="stroke: rgb(245, 245, 245); stroke-opacity: 1; stroke-width: 0.5px;"/><path class="xgrid crisp" transform="translate(278,0)" d="M0,70v660" style="stroke: rgb(245, 245, 245); stroke-opacity: 1; stroke-width: 0.5px;"/><path class="xgrid crisp" transform="translate(322,0)" d="M0,70v660" style="stroke: rgb(245, 245, 245); stroke-opacity: 1; stroke-width: 0.5px;"/><path class="xgrid crisp" transform="translate(344,0)" d="M0,70v660" style="stroke: rgb(245, 245, 245); stroke-opacity: 1; stroke-width: 0.5px;"/><path class="xgrid crisp" transform="translate(366,0)" d="M0,70v660" style="stroke: rgb(245, 245, 245); stroke-opacity: 1; stroke-width: 0.5px;"/><path class="xgrid crisp" transform="translate(388,0)" d="M0,70v660" style="stroke: rgb(245, 245, 245); stroke-opacity: 1; stroke-width: 0.5px;"/><path class="xgrid crisp" transform="translate(432,0)" d="M0,70v660" style="stroke: rgb(245, 245, 245); stroke-opacity: 1; stroke-width: 0.5px;"/><path class="xgrid crisp" transform="translate(454,0)" d="M0,70v660" style="stroke: rgb(245, 245, 245); stroke-opacity: 1; stroke-width: 0.5px;"/><path class="xgrid crisp" transform="translate(476,0)" d="M0,70v660" style="stroke: rgb(245, 245, 245); stroke-opacity: 1; stroke-width: 0.5px;"/><path class="xgrid crisp" transform="translate(498,0)" d="M0,70v660" style="stroke: rgb(245, 245, 245); stroke-opacity: 1; stroke-width: 0.5px;"/><path class="xgrid crisp" transform="translate(542,0)" d="M0,70v660" style="stroke: rgb(245, 245, 245); stroke-opacity: 1; stroke-width: 0.5px;"/><path class="xgrid crisp" transform="translate(564,0)" d="M0,70v660" style="stroke: rgb(245, 245, 245); stroke-opacity: 1; stroke-width: 0.5px;"/><path class="xgrid crisp" transform="translate(586,0)" d="M0,70v660" style="stroke: rgb(245, 245, 245); stroke-opacity: 1; stroke-width: 0.5px;"/><path class="xgrid crisp" transform="translate(608,0)" d="M0,70v660" style="stroke: rgb(245, 245, 245); stroke-opacity: 1; stroke-width: 0.5px;"/></g><g class="y"><path class="ygrid crisp" transform="translate(0,708)" d="M80,0h572" style="stroke: rgb(245, 245, 245); stroke-opacity: 1; stroke-width: 0.5px;"/><path class="ygrid crisp" transform="translate(0,686)" d="M80,0h572" style="stroke: rgb(245, 245, 245); stroke-opacity: 1; stroke-width: 0.5px;"/><path class="ygrid crisp" transform="translate(0,664)" d="M80,0h572" style="stroke: rgb(245, 245, 245); stroke-opacity: 1; stroke-width: 0.5px;"/><path class="ygrid crisp" transform="translate(0,642)" d="M80,0h572" style="stroke: rgb(245, 245, 245); stroke-opacity: 1; stroke-width: 0.5px;"/><path class="ygrid crisp" transform="translate(0,598)" d="M80,0h572" style="stroke: rgb(245, 245, 245); stroke-opacity: 1; stroke-width: 0.5px;"/><path class="ygrid crisp" transform="translate(0,576)" d="M80,0h572" style="stroke: rgb(245, 245, 245); stroke-opacity: 1; stroke-width: 0.5px;"/><path class="ygrid crisp" transform="translate(0,554)" d="M80,0h572" style="stroke: rgb(245, 245, 245); stroke-opacity: 1; stroke-width: 0.5px;"/><path class="ygrid crisp" transform="translate(0,532)" d="M80,0h572" style="stroke: rgb(245, 245, 245); stroke-opacity: 1; stroke-width: 0.5px;"/><path class="ygrid crisp" transform="translate(0,488)" d="M80,0h572" style="stroke: rgb(245, 245, 245); stroke-opacity: 1; stroke-width: 0.5px;"/><path class="ygrid crisp" transform="translate(0,466)" d="M80,0h572" style="stroke: rgb(245, 245, 245); stroke-opacity: 1; stroke-width: 0.5px;"/><path class="ygrid crisp" transform="translate(0,444)" d="M80,0h572" style="stroke: rgb(245, 245, 245); stroke-opacity: 1; stroke-width: 0.5px;"/><path class="ygrid crisp" transform="translate(0,422)" d="M80,0h572" style="stroke: rgb(245, 245, 245); stroke-opacity: 1; stroke-width: 0.5px;"/><path class="ygrid crisp" transform="translate(0,378)" d="M80,0h572" style="stroke: rgb(245, 245, 245); stroke-opacity: 1; stroke-width: 0.5px;"/><path class="ygrid crisp" transform="translate(0,356)" d="M80,0h572" style="stroke: rgb(245, 245, 245); stroke-opacity: 1; stroke-width: 0.5px;"/><path class="ygrid crisp" transform="translate(0,334)" d="M80,0h572" style="stroke: rgb(245, 245, 245); stroke-opacity: 1; stroke-width: 0.5px;"/><path class="ygrid crisp" transform="translate(0,312)" d="M80,0h572" style="stroke: rgb(245, 245, 245); stroke-opacity: 1; stroke-width: 0.5px;"/><path class="ygrid crisp" transform="translate(0,268)" d="M80,0h572" style="stroke: rgb(245, 245, 245); stroke-opacity: 1; stroke-width: 0.5px;"/><path class="ygrid crisp" transform="translate(0,246)" d="M80,0h572" style="stroke: rgb(245, 245, 245); stroke-opacity: 1; stroke-width: 0.5px;"/><path class="ygrid crisp" transform="translate(0,224)" d="M80,0h572" style="stroke: rgb(245, 245, 245); stroke-opacity: 1; stroke-width: 0.5px;"/><path class="ygrid crisp" transform="translate(0,202)" d="M80,0h572" style="stroke: rgb(245, 245, 245); stroke-opacity: 1; stroke-width: 0.5px;"/><path class="ygrid crisp" transform="translate(0,158)" d="M80,0h572" style="stroke: rgb(245, 245, 245); stroke-opacity: 1; stroke-width: 0.5px;"/><path class="ygrid crisp" transform="translate(0,136)" d="M80,0h572" style="stroke: rgb(245, 245, 245); stroke-opacity: 1; stroke-width: 0.5px;"/><path class="ygrid crisp" transform="translate(0,114)" d="M80,0h572" style="stroke: rgb(245, 245, 245); stroke-opacity: 1; stroke-width: 0.5px;"/><path class="ygrid crisp" transform="translate(0,92)" d="M80,0h572" style="stroke: rgb(245, 245, 245); stroke-opacity: 1; stroke-width: 0.5px;"/></g></g><g class="gridlayer"><g class="x"><path class="xgrid crisp" transform="translate(190,0)" d="M0,70v660" style="stroke: rgb(211, 211, 211); stroke-opacity: 1; stroke-width: 1px;"/><path class="xgrid crisp" transform="translate(300,0)" d="M0,70v660" style="stroke: rgb(211, 211, 211); stroke-opacity: 1; stroke-width: 1px;"/><path class="xgrid crisp" transform="translate(410,0)" d="M0,70v660" style="stroke: rgb(211, 211, 211); stroke-opacity: 1; stroke-width: 1px;"/><path class="xgrid crisp" transform="translate(520,0)" d="M0,70v660" style="stroke: rgb(211, 211, 211); stroke-opacity: 1; stroke-width: 1px;"/><path class="xgrid crisp" transform="translate(630,0)" d="M0,70v660" style="stroke: rgb(211, 211, 211); stroke-opacity: 1; stroke-width: 1px;"/></g><g class="y"><path class="ygrid crisp" transform="translate(0,620)" d="M80,0h572" style="stroke: rgb(211, 211, 211); stroke-opacity: 1; stroke-width: 1px;"/><path class="ygrid crisp" transform="translate(0,510)" d="M80,0h572" style="stroke: rgb(211, 211, 211); stroke-opacity: 1; stroke-width: 1px;"/><path class="ygrid crisp" transform="translate(0,400)" d="M80,0h572" style="stroke: rgb(211, 211, 211); stroke-opacity: 1; stroke-width: 1px;"/><path class="ygrid crisp" transform="translate(0,290)" d="M80,0h572" style="stroke: rgb(211, 211, 211); stroke-opacity: 1; stroke-width: 1px;"/><path class="ygrid crisp" transform="translate(0,180)" d="M80,0h572" style="stroke: rgb(211, 211, 211); stroke-opacity: 1; stroke-width: 1px;"/></g></g><g class="zerolinelayer"><path class="yzl zl crisp" transform="translate(0,730)" d="M80,0h572" style="stroke: rgb(255, 255, 255); stroke-opacity: 1; stroke-width: 2px;"/></g><g class="layer-between"><g class="shapelayer"/><g class="imagelayer"/></g><path class="xlines-below"/><path class="ylines-below"/><g class="overlines-below"/><g class="xaxislayer-below"/><g class="yaxislayer-below"/><g class="overaxes-below"/><g class="overplot"><g class="xy" transform="translate(80,70)" clip-path="url(#clip766a45xyplot)"><g class="scatterlayer mlayer"><g class="trace scatter trace6243e6" style="stroke-miterlimit: 2; opacity: 1;"><g class="fills"/><g class="errorbars"/><g class="lines"/><g class="points"><path class="point" transform="translate(30.8,49.84)" d="M4,0A4,4 0 1,1 0,-4A4,4 0 0,1 4,0Z" style="opacity: 1; stroke-width: 0px; fill: rgb(76, 114, 176); fill-opacity: 1;"/><path class="point" transform="translate(104.94,273.28)" d="M4,0A4,4 0 1,1 0,-4A4,4 0 0,1 4,0Z" style="opacity: 1; stroke-width: 0px; fill: rgb(76, 114, 176); fill-opacity: 1;"/><path class="point" transform="translate(132,284.02)" d="M4,0A4,4 0 1,1 0,-4A4,4 0 0,1 4,0Z" style="opacity: 1; stroke-width: 0px; fill: rgb(76, 114, 176); fill-opacity: 1;"/><path class="point" transform="translate(194.26,598.23)" d="M4,0A4,4 0 1,1 0,-4A4,4 0 0,1 4,0Z" style="opacity: 1; stroke-width: 0px; fill: rgb(76, 114, 176); fill-opacity: 1;"/><path class="point" transform="translate(280.72,637.44)" d="M4,0A4,4 0 1,1 0,-4A4,4 0 0,1 4,0Z" style="opacity: 1; stroke-width: 0px; fill: rgb(76, 114, 176); fill-opacity: 1;"/><path class="point" transform="translate(363.22,642.27)" d="M4,0A4,4 0 1,1 0,-4A4,4 0 0,1 4,0Z" style="opacity: 1; stroke-width: 0px; fill: rgb(76, 114, 176); fill-opacity: 1;"/><path class="point" transform="translate(533.94,648.52)" d="M4,0A4,4 0 1,1 0,-4A4,4 0 0,1 4,0Z" style="opacity: 1; stroke-width: 0px; fill: rgb(76, 114, 176); fill-opacity: 1;"/></g><g class="text"/></g><g class="trace scatter traceda9692" style="stroke-miterlimit: 2; opacity: 1;"><g class="fills"/><g class="errorbars"/><g class="lines"/><g class="points"/><g class="text"><g class="textpoint" transform="translate(0,-3.5)"><text x="30.8" y="44.34" text-anchor="start" style="font-family: 'Open Sans', verdana, arial, sans-serif; font-size: 14px; fill: rgb(76, 114, 176); fill-opacity: 1; white-space: pre;">oQ2</text></g><g class="textpoint" transform="translate(0,-3.5)"><text x="104.94" y="267.78" text-anchor="start" style="font-family: 'Open Sans', verdana, arial, sans-serif; font-size: 14px; fill: rgb(76, 114, 176); fill-opacity: 1; white-space: pre;">oQ3</text></g><g class="textpoint" transform="translate(0,-3.5)"><text x="132" y="278.52" text-anchor="start" style="font-family: 'Open Sans', verdana, arial, sans-serif; font-size: 14px; fill: rgb(76, 114, 176); fill-opacity: 1; white-space: pre;">oQ3.5</text></g><g class="textpoint" transform="translate(0,-3.5)"><text x="194.26" y="592.73" text-anchor="start" style="font-family: 'Open Sans', verdana, arial, sans-serif; font-size: 14px; fill: rgb(76, 114, 176); fill-opacity: 1; white-space: pre;">oQ4</text></g><g class="textpoint" transform="translate(0,-3.5)"><text x="280.72" y="631.94" text-anchor="start" style="font-family: 'Open Sans', verdana, arial, sans-serif; font-size: 14px; fill: rgb(76, 114, 176); fill-opacity: 1; white-space: pre;">oQ5</text></g><g class="textpoint" transform="translate(0,-3.5)"><text x="363.22" y="636.77" text-anchor="start" style="font-family: 'Open Sans', verdana, arial, sans-serif; font-size: 14px; fill: rgb(76, 114, 176); fill-opacity: 1; white-space: pre;">oQ6</text></g><g class="textpoint" transform="translate(0,-3.5)"><text x="533.94" y="643.02" text-anchor="start" style="font-family: 'Open Sans', verdana, arial, sans-serif; font-size: 14px; fill: rgb(76, 114, 176); fill-opacity: 1; white-space: pre;">oQ8</text></g></g></g><g class="trace scatter trace9e801f" style="stroke-miterlimit: 2; opacity: 1;"><g class="fills"/><g class="errorbars"/><g class="lines"/><g class="points"><path class="point" transform="translate(2.2,-6146.25)" d="M4,0A4,4 0 1,1 0,-4A4,4 0 0,1 4,0Z" style="opacity: 1; stroke-width: 0px; fill: rgb(221, 132, 82); fill-opacity: 1;"/><path class="point" transform="translate(91.08,152.97)" d="M4,0A4,4 0 1,1 0,-4A4,4 0 0,1 4,0Z" style="opacity: 1; stroke-width: 0px; fill: rgb(221, 132, 82); fill-opacity: 1;"/><path class="point" transform="translate(179.74,522.5)" d="M4,0A4,4 0 1,1 0,-4A4,4 0 0,1 4,0Z" style="opacity: 1; stroke-width: 0px; fill: rgb(221, 132, 82); fill-opacity: 1;"/><path class="point" transform="translate(268.4,617.03)" d="M4,0A4,4 0 1,1 0,-4A4,4 0 0,1 4,0Z" style="opacity: 1; stroke-width: 0px; fill: rgb(221, 132, 82); fill-opacity: 1;"/><path class="point" transform="translate(357.06,639.99)" d="M4,0A4,4 0 1,1 0,-4A4,4 0 0,1 4,0Z" style="opacity: 1; stroke-width: 0px; fill: rgb(221, 132, 82); fill-opacity: 1;"/><path class="point" transform="translate(534.6,648.12)" d="M4,0A4,4 0 1,1 0,-4A4,4 0 0,1 4,0Z" style="opacity: 1; stroke-width: 0px; fill: rgb(221, 132, 82); fill-opacity: 1;"/></g><g class="text"/></g><g class="trace scatter trace342282" style="stroke-miterlimit: 2; opacity: 1;"><g class="fills"/><g class="errorbars"/><g class="lines"/><g class="points"/><g class="text"><g class="textpoint" transform="translate(0,-3.5)"><text x="2.2" y="-6151.75" text-anchor="start" style="font-family: 'Open Sans', verdana, arial, sans-serif; font-size: 14px; fill: rgb(221, 132, 82); fill-opacity: 1; white-space: pre;">Q2</text></g><g class="textpoint" transform="translate(0,-3.5)"><text x="91.08" y="147.47" text-anchor="start" style="font-family: 'Open Sans', verdana, arial, sans-serif; font-size: 14px; fill: rgb(221, 132, 82); fill-opacity: 1; white-space: pre;">Q3</text></g><g class="textpoint" transform="translate(0,-3.5)"><text x="179.74" y="517" text-anchor="start" style="font-family: 'Open Sans', verdana, arial, sans-serif; font-size: 14px; fill: rgb(221, 132, 82); fill-opacity: 1; white-space: pre;">Q4</text></g><g class="textpoint" transform="translate(0,-3.5)"><text x="268.4" y="611.53" text-anchor="start" style="font-family: 'Open Sans', verdana, arial, sans-serif; font-size: 14px; fill: rgb(221, 132, 82); fill-opacity: 1; white-space: pre;">Q5</text></g><g class="textpoint" transform="translate(0,-3.5)"><text x="357.06" y="634.49" text-anchor="end" style="font-family: 'Open Sans', verdana, arial, sans-serif; font-size: 14px; fill: rgb(221, 132, 82); fill-opacity: 1; white-space: pre;">Q6</text></g><g class="textpoint" transform="translate(0,-3.5)"><text x="531.3" y="642.62" text-anchor="end" style="font-family: 'Open Sans', verdana, arial, sans-serif; font-size: 14px; fill: rgb(221, 132, 82); fill-opacity: 1; white-space: pre;">Q8</text></g></g></g><g class="trace scatter trace9e4cf1" style="stroke-miterlimit: 2; opacity: 1;"><g class="fills"/><g class="errorbars"/><g class="lines"/><g class="points"><path class="point" transform="translate(157.52,415.08)" d="M4,0A4,4 0 1,1 0,-4A4,4 0 0,1 4,0Z" style="opacity: 1; stroke-width: 0px; fill: rgb(140, 107, 177); fill-opacity: 1;"/><path class="point" transform="translate(512.38,567.62)" d="M4,0A4,4 0 1,1 0,-4A4,4 0 0,1 4,0Z" style="opacity: 1; stroke-width: 0px; fill: rgb(140, 107, 177); fill-opacity: 1;"/></g><g class="text"/></g><g class="trace scatter traceb8b0e3" style="stroke-miterlimit: 2; opacity: 1;"><g class="fills"/><g class="errorbars"/><g class="lines"/><g class="points"/><g class="text"><g class="textpoint" transform="translate(0,-3.5)"><text x="157.52" y="409.58" text-anchor="start" style="font-family: 'Open Sans', verdana, arial, sans-serif; font-size: 14px; fill: rgb(140, 107, 177); fill-opacity: 1; white-space: pre;">MXFP4</text></g><g class="textpoint" transform="translate(0,-3.5)"><text x="512.38" y="562.12" text-anchor="start" style="font-family: 'Open Sans', verdana, arial, sans-serif; font-size: 14px; fill: rgb(140, 107, 177); fill-opacity: 1; white-space: pre;">MXFP8</text></g></g></g><g class="trace scatter tracea2afcc" style="stroke-miterlimit: 2; opacity: 1;"><g class="fills"/><g class="errorbars"/><g class="lines"/><g class="points"><path class="point" transform="translate(117.7,553.12)" d="M4,0A4,4 0 1,1 0,-4A4,4 0 0,1 4,0Z" style="opacity: 1; stroke-width: 0px; fill: rgb(85, 168, 104); fill-opacity: 1;"/><path class="point" transform="translate(205.04,624.01)" d="M4,0A4,4 0 1,1 0,-4A4,4 0 0,1 4,0Z" style="opacity: 1; stroke-width: 0px; fill: rgb(85, 168, 104); fill-opacity: 1;"/></g><g class="text"/></g><g class="trace scatter trace15155c" style="stroke-miterlimit: 2; opacity: 1;"><g class="fills"/><g class="errorbars"/><g class="lines"/><g class="points"/><g class="text"><g class="textpoint" transform="translate(0,-3.5)"><text x="117.7" y="547.62" text-anchor="start" style="font-family: 'Open Sans', verdana, arial, sans-serif; font-size: 14px; fill: rgb(85, 168, 104); fill-opacity: 1; white-space: pre;">UD3</text></g><g class="textpoint" transform="translate(0,-3.5)"><text x="205.04" y="618.51" text-anchor="start" style="font-family: 'Open Sans', verdana, arial, sans-serif; font-size: 14px; fill: rgb(85, 168, 104); fill-opacity: 1; white-space: pre;">UD4</text></g></g></g></g></g></g><g class="zerolinelayer-above"/><path class="xlines-above crisp" d="M0,0" style="fill: none;"/><path class="ylines-above crisp" d="M0,0" style="fill: none;"/><g class="overlines-above"/><g class="xaxislayer-above"><g class="xtick"><text text-anchor="middle" x="0" y="743" transform="translate(80,10)" style="font-family: 'Open Sans', verdana, arial, sans-serif; font-size: 12px; fill: rgb(0, 0, 0); fill-opacity: 1; white-space: pre;">10</text></g><g class="xtick"><text text-anchor="middle" x="0" y="743" style="font-family: 'Open Sans', verdana, arial, sans-serif; font-size: 12px; fill: rgb(0, 0, 0); fill-opacity: 1; white-space: pre;" transform="translate(190,10)">15</text></g><g class="xtick"><text text-anchor="middle" x="0" y="743" style="font-family: 'Open Sans', verdana, arial, sans-serif; font-size: 12px; fill: rgb(0, 0, 0); fill-opacity: 1; white-space: pre;" transform="translate(300,10)">20</text></g><g class="xtick"><text text-anchor="middle" x="0" y="743" style="font-family: 'Open Sans', verdana, arial, sans-serif; font-size: 12px; fill: rgb(0, 0, 0); fill-opacity: 1; white-space: pre;" transform="translate(410,10)">25</text></g><g class="xtick"><text text-anchor="middle" x="0" y="743" style="font-family: 'Open Sans', verdana, arial, sans-serif; font-size: 12px; fill: rgb(0, 0, 0); fill-opacity: 1; white-space: pre;" transform="translate(520,10)">30</text></g><g class="xtick"><text text-anchor="middle" x="0" y="743" style="font-family: 'Open Sans', verdana, arial, sans-serif; font-size: 12px; fill: rgb(0, 0, 0); fill-opacity: 1; white-space: pre;" transform="translate(630,10)">35</text></g></g><g class="yaxislayer-above"><g class="ytick"><text text-anchor="end" x="79" y="4.199999999999999" transform="translate(-10,730)" style="font-family: 'Open Sans', verdana, arial, sans-serif; font-size: 12px; fill: rgb(0, 0, 0); fill-opacity: 1; white-space: pre;">0</text></g><g class="ytick"><text text-anchor="end" x="79" y="4.199999999999999" style="font-family: 'Open Sans', verdana, arial, sans-serif; font-size: 12px; fill: rgb(0, 0, 0); fill-opacity: 1; white-space: pre;" transform="translate(-10,620)">0.05</text></g><g class="ytick"><text text-anchor="end" x="79" y="4.199999999999999" style="font-family: 'Open Sans', verdana, arial, sans-serif; font-size: 12px; fill: rgb(0, 0, 0); fill-opacity: 1; white-space: pre;" transform="translate(-10,510)">0.1</text></g><g class="ytick"><text text-anchor="end" x="79" y="4.199999999999999" style="font-family: 'Open Sans', verdana, arial, sans-serif; font-size: 12px; fill: rgb(0, 0, 0); fill-opacity: 1; white-space: pre;" transform="translate(-10,400)">0.15</text></g><g class="ytick"><text text-anchor="end" x="79" y="4.199999999999999" style="font-family: 'Open Sans', verdana, arial, sans-serif; font-size: 12px; fill: rgb(0, 0, 0); fill-opacity: 1; white-space: pre;" transform="translate(-10,290)">0.2</text></g><g class="ytick"><text text-anchor="end" x="79" y="4.199999999999999" style="font-family: 'Open Sans', verdana, arial, sans-serif; font-size: 12px; fill: rgb(0, 0, 0); fill-opacity: 1; white-space: pre;" transform="translate(-10,180)">0.25</text></g><g class="ytick"><text text-anchor="end" x="79" y="4.199999999999999" style="font-family: 'Open Sans', verdana, arial, sans-serif; font-size: 12px; fill: rgb(0, 0, 0); fill-opacity: 1; white-space: pre;" transform="translate(-10,70)">0.3</text></g></g><g class="overaxes-above"/></g></g><g class="polarlayer"/><g class="smithlayer"/><g class="ternarylayer"/><g class="geolayer"/><g class="funnelarealayer"/><g class="pielayer"/><g class="iciclelayer"/><g class="treemaplayer"/><g class="sunburstlayer"/><g class="glimages"/><defs id="topdefs-766a45"><g class="clips"/></defs><g class="layer-above"><g class="imagelayer"/><g class="shapelayer"/></g><g class="infolayer"><g class="g-gtitle"><text class="gtitle" x="331" y="35" text-anchor="middle" dy="0em" style="opacity: 1; font-family: 'Open Sans', verdana, arial, sans-serif; font-size: 17px; fill: rgb(0, 0, 0); fill-opacity: 1; white-space: pre;">Qwen3.6-35B-A3B</text></g><g class="g-xtitle"><text class="xtitle" x="366" y="780.3" text-anchor="middle" style="opacity: 1; font-family: 'Open Sans', verdana, arial, sans-serif; font-size: 14px; fill: rgb(0, 0, 0); fill-opacity: 1; white-space: pre;">RAM (GiB)</text></g><g class="g-ytitle"><text class="ytitle" transform="rotate(-90,22.334375,400)" x="22.334375" y="400" text-anchor="middle" style="opacity: 1; font-family: 'Open Sans', verdana, arial, sans-serif; font-size: 14px; fill: rgb(0, 0, 0); fill-opacity: 1; white-space: pre;">KL Divergence (mean, nats)</text></g></g></svg>